<?xml version="1.0" encoding="UTF-8" standalone="no"?>
<!DOCTYPE svg PUBLIC "-//W3C//DTD SVG 1.1//EN"
 "http://www.w3.org/Graphics/SVG/1.1/DTD/svg11.dtd">
<!-- Generated by graphviz version 2.43.0 (0)
 -->
<!-- Title: controllers_diagram Pages: 1 -->
<svg width="1300pt" height="1326pt"
 viewBox="0.00 0.00 1300.00 1326.00" xmlns="http://www.w3.org/2000/svg" xmlns:xlink="http://www.w3.org/1999/xlink">
<g id="graph0" class="graph" transform="scale(1 1) rotate(0) translate(4 1322)">
<title>controllers_diagram</title>
<polygon fill="transparent" stroke="transparent" points="-4,4 -4,-1322 1296,-1322 1296,4 -4,4"/>
<!-- _diagram_info -->
<g id="node1" class="node">
<title>_diagram_info</title>
<text text-anchor="start" x="134" y="-231.6" font-family="Times,serif" font-size="13.00">Controllers diagram</text>
<text text-anchor="start" x="134" y="-217.6" font-family="Times,serif" font-size="13.00">Date: Dec 17 2021 &#45; 16:18</text>
<text text-anchor="start" x="134" y="-203.6" font-family="Times,serif" font-size="13.00">Migration version: 20210710204434</text>
<text text-anchor="start" x="134" y="-189.6" font-family="Times,serif" font-size="13.00">Generated by RailRoady 1.6.0</text>
<text text-anchor="start" x="134" y="-175.6" font-family="Times,serif" font-size="13.00">http://railroady.prestonlee.com</text>
</g>
<!-- RafflesController -->
<g id="node2" class="node">
<title>RafflesController</title>
<path fill="none" stroke="black" d="M264,-294.5C264,-294.5 378,-294.5 378,-294.5 384,-294.5 390,-300.5 390,-306.5 390,-306.5 390,-540.5 390,-540.5 390,-546.5 384,-552.5 378,-552.5 378,-552.5 264,-552.5 264,-552.5 258,-552.5 252,-546.5 252,-540.5 252,-540.5 252,-306.5 252,-306.5 252,-300.5 258,-294.5 264,-294.5"/>
<text text-anchor="middle" x="321" y="-537.3" font-family="Times,serif" font-size="14.00">RafflesController</text>
<polyline fill="none" stroke="black" points="252,-529.5 390,-529.5 "/>
<text text-anchor="start" x="260" y="-514.3" font-family="Times,serif" font-size="14.00">buy</text>
<text text-anchor="start" x="260" y="-499.3" font-family="Times,serif" font-size="14.00">cancel</text>
<text text-anchor="start" x="260" y="-484.3" font-family="Times,serif" font-size="14.00">check_tickets</text>
<text text-anchor="start" x="260" y="-469.3" font-family="Times,serif" font-size="14.00">checkout</text>
<text text-anchor="start" x="260" y="-454.3" font-family="Times,serif" font-size="14.00">finish</text>
<text text-anchor="start" x="260" y="-439.3" font-family="Times,serif" font-size="14.00">index</text>
<text text-anchor="start" x="260" y="-424.3" font-family="Times,serif" font-size="14.00">show</text>
<polyline fill="none" stroke="black" points="252,-416.5 390,-416.5 "/>
<polyline fill="none" stroke="black" points="252,-392.5 390,-392.5 "/>
<text text-anchor="start" x="260" y="-377.3" font-family="Times,serif" font-size="14.00">_layout</text>
<text text-anchor="start" x="260" y="-362.3" font-family="Times,serif" font-size="14.00">filter_pararms</text>
<text text-anchor="start" x="260" y="-347.3" font-family="Times,serif" font-size="14.00">get_filters</text>
<text text-anchor="start" x="260" y="-332.3" font-family="Times,serif" font-size="14.00">set_raffle</text>
<text text-anchor="start" x="260" y="-317.3" font-family="Times,serif" font-size="14.00">set_user</text>
<text text-anchor="start" x="260" y="-302.3" font-family="Times,serif" font-size="14.00">validate_filters</text>
</g>
<!-- Users::SessionsController -->
<g id="node3" class="node">
<title>Users::SessionsController</title>
<path fill="none" stroke="black" d="M12,-294.5C12,-294.5 191,-294.5 191,-294.5 197,-294.5 203,-300.5 203,-306.5 203,-306.5 203,-376.5 203,-376.5 203,-382.5 197,-388.5 191,-388.5 191,-388.5 12,-388.5 12,-388.5 6,-388.5 0,-382.5 0,-376.5 0,-376.5 0,-306.5 0,-306.5 0,-300.5 6,-294.5 12,-294.5"/>
<text text-anchor="middle" x="101.5" y="-373.3" font-family="Times,serif" font-size="14.00">Users::SessionsController</text>
<polyline fill="none" stroke="black" points="0,-365.5 203,-365.5 "/>
<polyline fill="none" stroke="black" points="0,-341.5 203,-341.5 "/>
<polyline fill="none" stroke="black" points="0,-317.5 203,-317.5 "/>
<text text-anchor="start" x="8" y="-302.3" font-family="Times,serif" font-size="14.00">_layout</text>
</g>
<!-- Users::UnlocksController -->
<g id="node4" class="node">
<title>Users::UnlocksController</title>
<path fill="none" stroke="black" d="M12,-42.5C12,-42.5 185,-42.5 185,-42.5 191,-42.5 197,-48.5 197,-54.5 197,-54.5 197,-124.5 197,-124.5 197,-130.5 191,-136.5 185,-136.5 185,-136.5 12,-136.5 12,-136.5 6,-136.5 0,-130.5 0,-124.5 0,-124.5 0,-54.5 0,-54.5 0,-48.5 6,-42.5 12,-42.5"/>
<text text-anchor="middle" x="98.5" y="-121.3" font-family="Times,serif" font-size="14.00">Users::UnlocksController</text>
<polyline fill="none" stroke="black" points="0,-113.5 197,-113.5 "/>
<polyline fill="none" stroke="black" points="0,-89.5 197,-89.5 "/>
<polyline fill="none" stroke="black" points="0,-65.5 197,-65.5 "/>
<text text-anchor="start" x="8" y="-50.3" font-family="Times,serif" font-size="14.00">_layout</text>
</g>
<!-- Users::PasswordsController -->
<g id="node5" class="node">
<title>Users::PasswordsController</title>
<path fill="none" stroke="black" d="M432,-105.5C432,-105.5 624,-105.5 624,-105.5 630,-105.5 636,-111.5 636,-117.5 636,-117.5 636,-187.5 636,-187.5 636,-193.5 630,-199.5 624,-199.5 624,-199.5 432,-199.5 432,-199.5 426,-199.5 420,-193.5 420,-187.5 420,-187.5 420,-117.5 420,-117.5 420,-111.5 426,-105.5 432,-105.5"/>
<text text-anchor="middle" x="528" y="-184.3" font-family="Times,serif" font-size="14.00">Users::PasswordsController</text>
<polyline fill="none" stroke="black" points="420,-176.5 636,-176.5 "/>
<polyline fill="none" stroke="black" points="420,-152.5 636,-152.5 "/>
<polyline fill="none" stroke="black" points="420,-128.5 636,-128.5 "/>
<text text-anchor="start" x="428" y="-113.3" font-family="Times,serif" font-size="14.00">_layout</text>
</g>
<!-- Users::OmniauthCallbacksController -->
<g id="node6" class="node">
<title>Users::OmniauthCallbacksController</title>
<path fill="none" stroke="black" d="M726,-294.5C726,-294.5 981,-294.5 981,-294.5 987,-294.5 993,-300.5 993,-306.5 993,-306.5 993,-376.5 993,-376.5 993,-382.5 987,-388.5 981,-388.5 981,-388.5 726,-388.5 726,-388.5 720,-388.5 714,-382.5 714,-376.5 714,-376.5 714,-306.5 714,-306.5 714,-300.5 720,-294.5 726,-294.5"/>
<text text-anchor="middle" x="853.5" y="-373.3" font-family="Times,serif" font-size="14.00">Users::OmniauthCallbacksController</text>
<polyline fill="none" stroke="black" points="714,-365.5 993,-365.5 "/>
<polyline fill="none" stroke="black" points="714,-341.5 993,-341.5 "/>
<polyline fill="none" stroke="black" points="714,-317.5 993,-317.5 "/>
<text text-anchor="start" x="722" y="-302.3" font-family="Times,serif" font-size="14.00">_layout</text>
</g>
<!-- Users::ConfirmationsController -->
<g id="node7" class="node">
<title>Users::ConfirmationsController</title>
<path fill="none" stroke="black" d="M1020,-1050.5C1020,-1050.5 1237,-1050.5 1237,-1050.5 1243,-1050.5 1249,-1056.5 1249,-1062.5 1249,-1062.5 1249,-1131.5 1249,-1131.5 1249,-1137.5 1243,-1143.5 1237,-1143.5 1237,-1143.5 1020,-1143.5 1020,-1143.5 1014,-1143.5 1008,-1137.5 1008,-1131.5 1008,-1131.5 1008,-1062.5 1008,-1062.5 1008,-1056.5 1014,-1050.5 1020,-1050.5"/>
<text text-anchor="middle" x="1128.5" y="-1128.3" font-family="Times,serif" font-size="14.00">Users::ConfirmationsController</text>
<polyline fill="none" stroke="black" points="1008,-1120.5 1249,-1120.5 "/>
<text text-anchor="start" x="1016" y="-1105.3" font-family="Times,serif" font-size="14.00">after_confirmation_path_for</text>
<polyline fill="none" stroke="black" points="1008,-1097.5 1249,-1097.5 "/>
<polyline fill="none" stroke="black" points="1008,-1073.5 1249,-1073.5 "/>
<text text-anchor="start" x="1016" y="-1058.3" font-family="Times,serif" font-size="14.00">_layout</text>
</g>
<!-- Users::RegistrationsController -->
<g id="node8" class="node">
<title>Users::RegistrationsController</title>
<path fill="none" stroke="black" d="M1041,-105.5C1041,-105.5 1253,-105.5 1253,-105.5 1259,-105.5 1265,-111.5 1265,-117.5 1265,-117.5 1265,-215.5 1265,-215.5 1265,-221.5 1259,-227.5 1253,-227.5 1253,-227.5 1041,-227.5 1041,-227.5 1035,-227.5 1029,-221.5 1029,-215.5 1029,-215.5 1029,-117.5 1029,-117.5 1029,-111.5 1035,-105.5 1041,-105.5"/>
<text text-anchor="middle" x="1147" y="-212.3" font-family="Times,serif" font-size="14.00">Users::RegistrationsController</text>
<polyline fill="none" stroke="black" points="1029,-204.5 1265,-204.5 "/>
<text text-anchor="start" x="1037" y="-189.3" font-family="Times,serif" font-size="14.00">create</text>
<polyline fill="none" stroke="black" points="1029,-181.5 1265,-181.5 "/>
<text text-anchor="start" x="1037" y="-166.3" font-family="Times,serif" font-size="14.00">after_sign_up_path_for</text>
<text text-anchor="start" x="1037" y="-151.3" font-family="Times,serif" font-size="14.00">configure_sign_up_params</text>
<polyline fill="none" stroke="black" points="1029,-143.5 1265,-143.5 "/>
<text text-anchor="start" x="1037" y="-128.3" font-family="Times,serif" font-size="14.00">_layout</text>
<text text-anchor="start" x="1037" y="-113.3" font-family="Times,serif" font-size="14.00">user_params</text>
</g>
<!-- UserController -->
<g id="node9" class="node">
<title>UserController</title>
<path fill="none" stroke="black" d="M201,-945.5C201,-945.5 384,-945.5 384,-945.5 390,-945.5 396,-951.5 396,-957.5 396,-957.5 396,-1176.5 396,-1176.5 396,-1182.5 390,-1188.5 384,-1188.5 384,-1188.5 201,-1188.5 201,-1188.5 195,-1188.5 189,-1182.5 189,-1176.5 189,-1176.5 189,-957.5 189,-957.5 189,-951.5 195,-945.5 201,-945.5"/>
<text text-anchor="middle" x="292.5" y="-1173.3" font-family="Times,serif" font-size="14.00">UserController</text>
<polyline fill="none" stroke="black" points="189,-1165.5 396,-1165.5 "/>
<text text-anchor="start" x="197" y="-1150.3" font-family="Times,serif" font-size="14.00">confirm_received</text>
<text text-anchor="start" x="197" y="-1135.3" font-family="Times,serif" font-size="14.00">new</text>
<text text-anchor="start" x="197" y="-1120.3" font-family="Times,serif" font-size="14.00">profile</text>
<text text-anchor="start" x="197" y="-1105.3" font-family="Times,serif" font-size="14.00">tickets</text>
<text text-anchor="start" x="197" y="-1090.3" font-family="Times,serif" font-size="14.00">update</text>
<polyline fill="none" stroke="black" points="189,-1082.5 396,-1082.5 "/>
<polyline fill="none" stroke="black" points="189,-1058.5 396,-1058.5 "/>
<text text-anchor="start" x="197" y="-1043.3" font-family="Times,serif" font-size="14.00">_layout</text>
<text text-anchor="start" x="197" y="-1028.3" font-family="Times,serif" font-size="14.00">filter_pararms</text>
<text text-anchor="start" x="197" y="-1013.3" font-family="Times,serif" font-size="14.00">get_filters</text>
<text text-anchor="start" x="197" y="-998.3" font-family="Times,serif" font-size="14.00">set_user</text>
<text text-anchor="start" x="197" y="-983.3" font-family="Times,serif" font-size="14.00">user_params</text>
<text text-anchor="start" x="197" y="-968.3" font-family="Times,serif" font-size="14.00">user_params_no_password</text>
<text text-anchor="start" x="197" y="-953.3" font-family="Times,serif" font-size="14.00">validate_filters</text>
</g>
<!-- Admin::RafflesController -->
<g id="node10" class="node">
<title>Admin::RafflesController</title>
<path fill="none" stroke="black" d="M957,-672.5C957,-672.5 1126,-672.5 1126,-672.5 1132,-672.5 1138,-678.5 1138,-684.5 1138,-684.5 1138,-873.5 1138,-873.5 1138,-879.5 1132,-885.5 1126,-885.5 1126,-885.5 957,-885.5 957,-885.5 951,-885.5 945,-879.5 945,-873.5 945,-873.5 945,-684.5 945,-684.5 945,-678.5 951,-672.5 957,-672.5"/>
<text text-anchor="middle" x="1041.5" y="-870.3" font-family="Times,serif" font-size="14.00">Admin::RafflesController</text>
<polyline fill="none" stroke="black" points="945,-862.5 1138,-862.5 "/>
<text text-anchor="start" x="953" y="-847.3" font-family="Times,serif" font-size="14.00">create</text>
<text text-anchor="start" x="953" y="-832.3" font-family="Times,serif" font-size="14.00">destroy</text>
<text text-anchor="start" x="953" y="-817.3" font-family="Times,serif" font-size="14.00">edit</text>
<text text-anchor="start" x="953" y="-802.3" font-family="Times,serif" font-size="14.00">index</text>
<text text-anchor="start" x="953" y="-787.3" font-family="Times,serif" font-size="14.00">new</text>
<text text-anchor="start" x="953" y="-772.3" font-family="Times,serif" font-size="14.00">show</text>
<text text-anchor="start" x="953" y="-757.3" font-family="Times,serif" font-size="14.00">update</text>
<polyline fill="none" stroke="black" points="945,-749.5 1138,-749.5 "/>
<polyline fill="none" stroke="black" points="945,-725.5 1138,-725.5 "/>
<text text-anchor="start" x="953" y="-710.3" font-family="Times,serif" font-size="14.00">_layout</text>
<text text-anchor="start" x="953" y="-695.3" font-family="Times,serif" font-size="14.00">raffle_params</text>
<text text-anchor="start" x="953" y="-680.3" font-family="Times,serif" font-size="14.00">set_raffle</text>
</g>
<!-- Admin::UsersController -->
<g id="node11" class="node">
<title>Admin::UsersController</title>
<path fill="none" stroke="black" d="M180,-588.5C180,-588.5 363,-588.5 363,-588.5 369,-588.5 375,-594.5 375,-600.5 375,-600.5 375,-819.5 375,-819.5 375,-825.5 369,-831.5 363,-831.5 363,-831.5 180,-831.5 180,-831.5 174,-831.5 168,-825.5 168,-819.5 168,-819.5 168,-600.5 168,-600.5 168,-594.5 174,-588.5 180,-588.5"/>
<text text-anchor="middle" x="271.5" y="-816.3" font-family="Times,serif" font-size="14.00">Admin::UsersController</text>
<polyline fill="none" stroke="black" points="168,-808.5 375,-808.5 "/>
<text text-anchor="start" x="176" y="-793.3" font-family="Times,serif" font-size="14.00">create</text>
<text text-anchor="start" x="176" y="-778.3" font-family="Times,serif" font-size="14.00">destroy</text>
<text text-anchor="start" x="176" y="-763.3" font-family="Times,serif" font-size="14.00">edit</text>
<text text-anchor="start" x="176" y="-748.3" font-family="Times,serif" font-size="14.00">index</text>
<text text-anchor="start" x="176" y="-733.3" font-family="Times,serif" font-size="14.00">new</text>
<text text-anchor="start" x="176" y="-718.3" font-family="Times,serif" font-size="14.00">profile</text>
<text text-anchor="start" x="176" y="-703.3" font-family="Times,serif" font-size="14.00">show</text>
<text text-anchor="start" x="176" y="-688.3" font-family="Times,serif" font-size="14.00">update</text>
<polyline fill="none" stroke="black" points="168,-680.5 375,-680.5 "/>
<polyline fill="none" stroke="black" points="168,-656.5 375,-656.5 "/>
<text text-anchor="start" x="176" y="-641.3" font-family="Times,serif" font-size="14.00">_layout</text>
<text text-anchor="start" x="176" y="-626.3" font-family="Times,serif" font-size="14.00">set_user</text>
<text text-anchor="start" x="176" y="-611.3" font-family="Times,serif" font-size="14.00">user_params</text>
<text text-anchor="start" x="176" y="-596.3" font-family="Times,serif" font-size="14.00">user_params_no_password</text>
</g>
<!-- Admin::SessionsController -->
<g id="node12" class="node">
<title>Admin::SessionsController</title>
<path fill="none" stroke="black" d="M12,-420.5C12,-420.5 194,-420.5 194,-420.5 200,-420.5 206,-426.5 206,-432.5 206,-432.5 206,-531.5 206,-531.5 206,-537.5 200,-543.5 194,-543.5 194,-543.5 12,-543.5 12,-543.5 6,-543.5 0,-537.5 0,-531.5 0,-531.5 0,-432.5 0,-432.5 0,-426.5 6,-420.5 12,-420.5"/>
<text text-anchor="middle" x="103" y="-528.3" font-family="Times,serif" font-size="14.00">Admin::SessionsController</text>
<polyline fill="none" stroke="black" points="0,-520.5 206,-520.5 "/>
<text text-anchor="start" x="8" y="-505.3" font-family="Times,serif" font-size="14.00">create</text>
<text text-anchor="start" x="8" y="-490.3" font-family="Times,serif" font-size="14.00">destroy</text>
<text text-anchor="start" x="8" y="-475.3" font-family="Times,serif" font-size="14.00">new</text>
<polyline fill="none" stroke="black" points="0,-467.5 206,-467.5 "/>
<polyline fill="none" stroke="black" points="0,-443.5 206,-443.5 "/>
<text text-anchor="start" x="8" y="-428.3" font-family="Times,serif" font-size="14.00">_layout</text>
</g>
<!-- Admin::ReportsController -->
<g id="node13" class="node">
<title>Admin::ReportsController</title>
<path fill="none" stroke="black" d="M453,-735.5C453,-735.5 649,-735.5 649,-735.5 655,-735.5 661,-741.5 661,-747.5 661,-747.5 661,-966.5 661,-966.5 661,-972.5 655,-978.5 649,-978.5 649,-978.5 453,-978.5 453,-978.5 447,-978.5 441,-972.5 441,-966.5 441,-966.5 441,-747.5 441,-747.5 441,-741.5 447,-735.5 453,-735.5"/>
<text text-anchor="middle" x="551" y="-963.3" font-family="Times,serif" font-size="14.00">Admin::ReportsController</text>
<polyline fill="none" stroke="black" points="441,-955.5 661,-955.5 "/>
<text text-anchor="start" x="449" y="-940.3" font-family="Times,serif" font-size="14.00">general</text>
<text text-anchor="start" x="449" y="-925.3" font-family="Times,serif" font-size="14.00">get_institution_registrations</text>
<text text-anchor="start" x="449" y="-910.3" font-family="Times,serif" font-size="14.00">get_new_raffles</text>
<text text-anchor="start" x="449" y="-895.3" font-family="Times,serif" font-size="14.00">get_revenue</text>
<text text-anchor="start" x="449" y="-880.3" font-family="Times,serif" font-size="14.00">get_sales</text>
<text text-anchor="start" x="449" y="-865.3" font-family="Times,serif" font-size="14.00">get_user_registrations</text>
<text text-anchor="start" x="449" y="-850.3" font-family="Times,serif" font-size="14.00">registrations</text>
<text text-anchor="start" x="449" y="-835.3" font-family="Times,serif" font-size="14.00">revenue</text>
<text text-anchor="start" x="449" y="-820.3" font-family="Times,serif" font-size="14.00">sales</text>
<polyline fill="none" stroke="black" points="441,-812.5 661,-812.5 "/>
<polyline fill="none" stroke="black" points="441,-788.5 661,-788.5 "/>
<text text-anchor="start" x="449" y="-773.3" font-family="Times,serif" font-size="14.00">_layout</text>
<text text-anchor="start" x="449" y="-758.3" font-family="Times,serif" font-size="14.00">get_filters</text>
<text text-anchor="start" x="449" y="-743.3" font-family="Times,serif" font-size="14.00">validate_filters</text>
</g>
<!-- Admin::FinancialController -->
<g id="node14" class="node">
<title>Admin::FinancialController</title>
<path fill="none" stroke="black" d="M684,-0.5C684,-0.5 869,-0.5 869,-0.5 875,-0.5 881,-6.5 881,-12.5 881,-12.5 881,-81.5 881,-81.5 881,-87.5 875,-93.5 869,-93.5 869,-93.5 684,-93.5 684,-93.5 678,-93.5 672,-87.5 672,-81.5 672,-81.5 672,-12.5 672,-12.5 672,-6.5 678,-0.5 684,-0.5"/>
<text text-anchor="middle" x="776.5" y="-78.3" font-family="Times,serif" font-size="14.00">Admin::FinancialController</text>
<polyline fill="none" stroke="black" points="672,-70.5 881,-70.5 "/>
<text text-anchor="start" x="680" y="-55.3" font-family="Times,serif" font-size="14.00">index</text>
<polyline fill="none" stroke="black" points="672,-47.5 881,-47.5 "/>
<polyline fill="none" stroke="black" points="672,-23.5 881,-23.5 "/>
<text text-anchor="start" x="680" y="-8.3" font-family="Times,serif" font-size="14.00">_layout</text>
</g>
<!-- Admin::InstitutionsController -->
<g id="node15" class="node">
<title>Admin::InstitutionsController</title>
<path fill="none" stroke="black" d="M432,-441.5C432,-441.5 658,-441.5 658,-441.5 664,-441.5 670,-447.5 670,-453.5 670,-453.5 670,-687.5 670,-687.5 670,-693.5 664,-699.5 658,-699.5 658,-699.5 432,-699.5 432,-699.5 426,-699.5 420,-693.5 420,-687.5 420,-687.5 420,-453.5 420,-453.5 420,-447.5 426,-441.5 432,-441.5"/>
<text text-anchor="middle" x="545" y="-684.3" font-family="Times,serif" font-size="14.00">Admin::InstitutionsController</text>
<polyline fill="none" stroke="black" points="420,-676.5 670,-676.5 "/>
<text text-anchor="start" x="428" y="-661.3" font-family="Times,serif" font-size="14.00">aprove_institution</text>
<text text-anchor="start" x="428" y="-646.3" font-family="Times,serif" font-size="14.00">create</text>
<text text-anchor="start" x="428" y="-631.3" font-family="Times,serif" font-size="14.00">destroy</text>
<text text-anchor="start" x="428" y="-616.3" font-family="Times,serif" font-size="14.00">edit</text>
<text text-anchor="start" x="428" y="-601.3" font-family="Times,serif" font-size="14.00">index</text>
<text text-anchor="start" x="428" y="-586.3" font-family="Times,serif" font-size="14.00">institutions_approval</text>
<text text-anchor="start" x="428" y="-571.3" font-family="Times,serif" font-size="14.00">new</text>
<text text-anchor="start" x="428" y="-556.3" font-family="Times,serif" font-size="14.00">show</text>
<text text-anchor="start" x="428" y="-541.3" font-family="Times,serif" font-size="14.00">update</text>
<polyline fill="none" stroke="black" points="420,-533.5 670,-533.5 "/>
<polyline fill="none" stroke="black" points="420,-509.5 670,-509.5 "/>
<text text-anchor="start" x="428" y="-494.3" font-family="Times,serif" font-size="14.00">_layout</text>
<text text-anchor="start" x="428" y="-479.3" font-family="Times,serif" font-size="14.00">institution_params</text>
<text text-anchor="start" x="428" y="-464.3" font-family="Times,serif" font-size="14.00">institution_params_no_password</text>
<text text-anchor="start" x="428" y="-449.3" font-family="Times,serif" font-size="14.00">set_institution</text>
</g>
<!-- Admin::WithdrawsController -->
<g id="node16" class="node">
<title>Admin::WithdrawsController</title>
<path fill="none" stroke="black" d="M1083,-546.5C1083,-546.5 1280,-546.5 1280,-546.5 1286,-546.5 1292,-552.5 1292,-558.5 1292,-558.5 1292,-628.5 1292,-628.5 1292,-634.5 1286,-640.5 1280,-640.5 1280,-640.5 1083,-640.5 1083,-640.5 1077,-640.5 1071,-634.5 1071,-628.5 1071,-628.5 1071,-558.5 1071,-558.5 1071,-552.5 1077,-546.5 1083,-546.5"/>
<text text-anchor="middle" x="1181.5" y="-625.3" font-family="Times,serif" font-size="14.00">Admin::WithdrawsController</text>
<polyline fill="none" stroke="black" points="1071,-617.5 1292,-617.5 "/>
<polyline fill="none" stroke="black" points="1071,-593.5 1292,-593.5 "/>
<polyline fill="none" stroke="black" points="1071,-569.5 1292,-569.5 "/>
<text text-anchor="start" x="1079" y="-554.3" font-family="Times,serif" font-size="14.00">_layout</text>
</g>
<!-- Institution::RafflesController -->
<g id="node17" class="node">
<title>Institution::RafflesController</title>
<path fill="none" stroke="black" d="M705,-735.5C705,-735.5 903,-735.5 903,-735.5 909,-735.5 915,-741.5 915,-747.5 915,-747.5 915,-1011.5 915,-1011.5 915,-1017.5 909,-1023.5 903,-1023.5 903,-1023.5 705,-1023.5 705,-1023.5 699,-1023.5 693,-1017.5 693,-1011.5 693,-1011.5 693,-747.5 693,-747.5 693,-741.5 699,-735.5 705,-735.5"/>
<text text-anchor="middle" x="804" y="-1008.3" font-family="Times,serif" font-size="14.00">Institution::RafflesController</text>
<polyline fill="none" stroke="black" points="693,-1000.5 915,-1000.5 "/>
<text text-anchor="start" x="701" y="-985.3" font-family="Times,serif" font-size="14.00">create</text>
<text text-anchor="start" x="701" y="-970.3" font-family="Times,serif" font-size="14.00">destroy</text>
<text text-anchor="start" x="701" y="-955.3" font-family="Times,serif" font-size="14.00">edit</text>
<text text-anchor="start" x="701" y="-940.3" font-family="Times,serif" font-size="14.00">index</text>
<text text-anchor="start" x="701" y="-925.3" font-family="Times,serif" font-size="14.00">new</text>
<text text-anchor="start" x="701" y="-910.3" font-family="Times,serif" font-size="14.00">show</text>
<text text-anchor="start" x="701" y="-895.3" font-family="Times,serif" font-size="14.00">update</text>
<text text-anchor="start" x="701" y="-880.3" font-family="Times,serif" font-size="14.00">upload</text>
<polyline fill="none" stroke="black" points="693,-872.5 915,-872.5 "/>
<polyline fill="none" stroke="black" points="693,-848.5 915,-848.5 "/>
<text text-anchor="start" x="701" y="-833.3" font-family="Times,serif" font-size="14.00">_layout</text>
<text text-anchor="start" x="701" y="-818.3" font-family="Times,serif" font-size="14.00">filter_pararms</text>
<text text-anchor="start" x="701" y="-803.3" font-family="Times,serif" font-size="14.00">get_filters</text>
<text text-anchor="start" x="701" y="-788.3" font-family="Times,serif" font-size="14.00">raffle_params</text>
<text text-anchor="start" x="701" y="-773.3" font-family="Times,serif" font-size="14.00">set_institution</text>
<text text-anchor="start" x="701" y="-758.3" font-family="Times,serif" font-size="14.00">set_raffle</text>
<text text-anchor="start" x="701" y="-743.3" font-family="Times,serif" font-size="14.00">validate_filters</text>
</g>
<!-- HomeController -->
<g id="node18" class="node">
<title>HomeController</title>
<path fill="none" stroke="black" d="M12,-1134.5C12,-1134.5 132,-1134.5 132,-1134.5 138,-1134.5 144,-1140.5 144,-1146.5 144,-1146.5 144,-1305.5 144,-1305.5 144,-1311.5 138,-1317.5 132,-1317.5 132,-1317.5 12,-1317.5 12,-1317.5 6,-1317.5 0,-1311.5 0,-1305.5 0,-1305.5 0,-1146.5 0,-1146.5 0,-1140.5 6,-1134.5 12,-1134.5"/>
<text text-anchor="middle" x="72" y="-1302.3" font-family="Times,serif" font-size="14.00">HomeController</text>
<polyline fill="none" stroke="black" points="0,-1294.5 144,-1294.5 "/>
<text text-anchor="start" x="8" y="-1279.3" font-family="Times,serif" font-size="14.00">access_institution</text>
<text text-anchor="start" x="8" y="-1264.3" font-family="Times,serif" font-size="14.00">access_user</text>
<text text-anchor="start" x="8" y="-1249.3" font-family="Times,serif" font-size="14.00">home</text>
<text text-anchor="start" x="8" y="-1234.3" font-family="Times,serif" font-size="14.00">log_in</text>
<text text-anchor="start" x="8" y="-1219.3" font-family="Times,serif" font-size="14.00">terms_of_service</text>
<polyline fill="none" stroke="black" points="0,-1211.5 144,-1211.5 "/>
<polyline fill="none" stroke="black" points="0,-1187.5 144,-1187.5 "/>
<text text-anchor="start" x="8" y="-1172.3" font-family="Times,serif" font-size="14.00">_layout</text>
<text text-anchor="start" x="8" y="-1157.3" font-family="Times,serif" font-size="14.00">clean_params</text>
<text text-anchor="start" x="8" y="-1142.3" font-family="Times,serif" font-size="14.00">login_params</text>
</g>
<!-- InstitutionController -->
<g id="node19" class="node">
<title>InstitutionController</title>
<path fill="none" stroke="black" d="M432,-231.5C432,-231.5 658,-231.5 658,-231.5 664,-231.5 670,-237.5 670,-243.5 670,-243.5 670,-387.5 670,-387.5 670,-393.5 664,-399.5 658,-399.5 658,-399.5 432,-399.5 432,-399.5 426,-399.5 420,-393.5 420,-387.5 420,-387.5 420,-243.5 420,-243.5 420,-237.5 426,-231.5 432,-231.5"/>
<text text-anchor="middle" x="545" y="-384.3" font-family="Times,serif" font-size="14.00">InstitutionController</text>
<polyline fill="none" stroke="black" points="420,-376.5 670,-376.5 "/>
<text text-anchor="start" x="428" y="-361.3" font-family="Times,serif" font-size="14.00">confirm_sended</text>
<text text-anchor="start" x="428" y="-346.3" font-family="Times,serif" font-size="14.00">profile</text>
<text text-anchor="start" x="428" y="-331.3" font-family="Times,serif" font-size="14.00">update</text>
<polyline fill="none" stroke="black" points="420,-323.5 670,-323.5 "/>
<polyline fill="none" stroke="black" points="420,-299.5 670,-299.5 "/>
<text text-anchor="start" x="428" y="-284.3" font-family="Times,serif" font-size="14.00">_layout</text>
<text text-anchor="start" x="428" y="-269.3" font-family="Times,serif" font-size="14.00">institution_params</text>
<text text-anchor="start" x="428" y="-254.3" font-family="Times,serif" font-size="14.00">institution_params_no_password</text>
<text text-anchor="start" x="428" y="-239.3" font-family="Times,serif" font-size="14.00">set_institution</text>
</g>
<!-- Institutions::SessionsController -->
<g id="node20" class="node">
<title>Institutions::SessionsController</title>
<path fill="none" stroke="black" d="M1041,-273.5C1041,-273.5 1260,-273.5 1260,-273.5 1266,-273.5 1272,-279.5 1272,-285.5 1272,-285.5 1272,-355.5 1272,-355.5 1272,-361.5 1266,-367.5 1260,-367.5 1260,-367.5 1041,-367.5 1041,-367.5 1035,-367.5 1029,-361.5 1029,-355.5 1029,-355.5 1029,-285.5 1029,-285.5 1029,-279.5 1035,-273.5 1041,-273.5"/>
<text text-anchor="middle" x="1150.5" y="-352.3" font-family="Times,serif" font-size="14.00">Institutions::SessionsController</text>
<polyline fill="none" stroke="black" points="1029,-344.5 1272,-344.5 "/>
<polyline fill="none" stroke="black" points="1029,-320.5 1272,-320.5 "/>
<polyline fill="none" stroke="black" points="1029,-296.5 1272,-296.5 "/>
<text text-anchor="start" x="1037" y="-281.3" font-family="Times,serif" font-size="14.00">_layout</text>
</g>
<!-- Institutions::UnlocksController -->
<g id="node21" class="node">
<title>Institutions::UnlocksController</title>
<path fill="none" stroke="black" d="M747,-1071.5C747,-1071.5 961,-1071.5 961,-1071.5 967,-1071.5 973,-1077.5 973,-1083.5 973,-1083.5 973,-1153.5 973,-1153.5 973,-1159.5 967,-1165.5 961,-1165.5 961,-1165.5 747,-1165.5 747,-1165.5 741,-1165.5 735,-1159.5 735,-1153.5 735,-1153.5 735,-1083.5 735,-1083.5 735,-1077.5 741,-1071.5 747,-1071.5"/>
<text text-anchor="middle" x="854" y="-1150.3" font-family="Times,serif" font-size="14.00">Institutions::UnlocksController</text>
<polyline fill="none" stroke="black" points="735,-1142.5 973,-1142.5 "/>
<polyline fill="none" stroke="black" points="735,-1118.5 973,-1118.5 "/>
<polyline fill="none" stroke="black" points="735,-1094.5 973,-1094.5 "/>
<text text-anchor="start" x="743" y="-1079.3" font-family="Times,serif" font-size="14.00">_layout</text>
</g>
<!-- Institutions::PasswordsController -->
<g id="node22" class="node">
<title>Institutions::PasswordsController</title>
<path fill="none" stroke="black" d="M726,-420.5C726,-420.5 1093,-420.5 1093,-420.5 1099,-420.5 1105,-426.5 1105,-432.5 1105,-432.5 1105,-501.5 1105,-501.5 1105,-507.5 1099,-513.5 1093,-513.5 1093,-513.5 726,-513.5 726,-513.5 720,-513.5 714,-507.5 714,-501.5 714,-501.5 714,-432.5 714,-432.5 714,-426.5 720,-420.5 726,-420.5"/>
<text text-anchor="middle" x="909.5" y="-498.3" font-family="Times,serif" font-size="14.00">Institutions::PasswordsController</text>
<polyline fill="none" stroke="black" points="714,-490.5 1105,-490.5 "/>
<text text-anchor="start" x="722" y="-475.3" font-family="Times,serif" font-size="14.00">after_sending_reset_password_instructions_path_for</text>
<polyline fill="none" stroke="black" points="714,-467.5 1105,-467.5 "/>
<polyline fill="none" stroke="black" points="714,-443.5 1105,-443.5 "/>
<text text-anchor="start" x="722" y="-428.3" font-family="Times,serif" font-size="14.00">_layout</text>
</g>
<!-- Institutions::OmniauthCallbacksController -->
<g id="node23" class="node">
<title>Institutions::OmniauthCallbacksController</title>
<path fill="none" stroke="black" d="M726,-546.5C726,-546.5 1022,-546.5 1022,-546.5 1028,-546.5 1034,-552.5 1034,-558.5 1034,-558.5 1034,-628.5 1034,-628.5 1034,-634.5 1028,-640.5 1022,-640.5 1022,-640.5 726,-640.5 726,-640.5 720,-640.5 714,-634.5 714,-628.5 714,-628.5 714,-558.5 714,-558.5 714,-552.5 720,-546.5 726,-546.5"/>
<text text-anchor="middle" x="874" y="-625.3" font-family="Times,serif" font-size="14.00">Institutions::OmniauthCallbacksController</text>
<polyline fill="none" stroke="black" points="714,-617.5 1034,-617.5 "/>
<polyline fill="none" stroke="black" points="714,-593.5 1034,-593.5 "/>
<polyline fill="none" stroke="black" points="714,-569.5 1034,-569.5 "/>
<text text-anchor="start" x="722" y="-554.3" font-family="Times,serif" font-size="14.00">_layout</text>
</g>
<!-- Institutions::ConfirmationsController -->
<g id="node24" class="node">
<title>Institutions::ConfirmationsController</title>
<path fill="none" stroke="black" d="M957,-924.5C957,-924.5 1214,-924.5 1214,-924.5 1220,-924.5 1226,-930.5 1226,-936.5 1226,-936.5 1226,-1005.5 1226,-1005.5 1226,-1011.5 1220,-1017.5 1214,-1017.5 1214,-1017.5 957,-1017.5 957,-1017.5 951,-1017.5 945,-1011.5 945,-1005.5 945,-1005.5 945,-936.5 945,-936.5 945,-930.5 951,-924.5 957,-924.5"/>
<text text-anchor="middle" x="1085.5" y="-1002.3" font-family="Times,serif" font-size="14.00">Institutions::ConfirmationsController</text>
<polyline fill="none" stroke="black" points="945,-994.5 1226,-994.5 "/>
<text text-anchor="start" x="953" y="-979.3" font-family="Times,serif" font-size="14.00">after_confirmation_path_for</text>
<polyline fill="none" stroke="black" points="945,-971.5 1226,-971.5 "/>
<polyline fill="none" stroke="black" points="945,-947.5 1226,-947.5 "/>
<text text-anchor="start" x="953" y="-932.3" font-family="Times,serif" font-size="14.00">_layout</text>
</g>
<!-- Institutions::RegistrationsController -->
<g id="node25" class="node">
<title>Institutions::RegistrationsController</title>
<path fill="none" stroke="black" d="M726,-126.5C726,-126.5 979,-126.5 979,-126.5 985,-126.5 991,-132.5 991,-138.5 991,-138.5 991,-236.5 991,-236.5 991,-242.5 985,-248.5 979,-248.5 979,-248.5 726,-248.5 726,-248.5 720,-248.5 714,-242.5 714,-236.5 714,-236.5 714,-138.5 714,-138.5 714,-132.5 720,-126.5 726,-126.5"/>
<text text-anchor="middle" x="852.5" y="-233.3" font-family="Times,serif" font-size="14.00">Institutions::RegistrationsController</text>
<polyline fill="none" stroke="black" points="714,-225.5 991,-225.5 "/>
<text text-anchor="start" x="722" y="-210.3" font-family="Times,serif" font-size="14.00">create</text>
<polyline fill="none" stroke="black" points="714,-202.5 991,-202.5 "/>
<text text-anchor="start" x="722" y="-187.3" font-family="Times,serif" font-size="14.00">after_inactive_sign_up_path_for</text>
<text text-anchor="start" x="722" y="-172.3" font-family="Times,serif" font-size="14.00">configure_sign_up_params</text>
<polyline fill="none" stroke="black" points="714,-164.5 991,-164.5 "/>
<text text-anchor="start" x="722" y="-149.3" font-family="Times,serif" font-size="14.00">_layout</text>
<text text-anchor="start" x="722" y="-134.3" font-family="Times,serif" font-size="14.00">institution_params</text>
</g>
<!-- ApplicationController -->
<g id="node26" class="node">
<title>ApplicationController</title>
<path fill="none" stroke="black" d="M495,-1029.5C495,-1029.5 645,-1029.5 645,-1029.5 651,-1029.5 657,-1035.5 657,-1041.5 657,-1041.5 657,-1170.5 657,-1170.5 657,-1176.5 651,-1182.5 645,-1182.5 645,-1182.5 495,-1182.5 495,-1182.5 489,-1182.5 483,-1176.5 483,-1170.5 483,-1170.5 483,-1041.5 483,-1041.5 483,-1035.5 489,-1029.5 495,-1029.5"/>
<text text-anchor="middle" x="570" y="-1167.3" font-family="Times,serif" font-size="14.00">ApplicationController</text>
<polyline fill="none" stroke="black" points="483,-1159.5 657,-1159.5 "/>
<text text-anchor="start" x="491" y="-1144.3" font-family="Times,serif" font-size="14.00">after_sign_in_path_for</text>
<text text-anchor="start" x="491" y="-1129.3" font-family="Times,serif" font-size="14.00">get_cities_by_cep</text>
<text text-anchor="start" x="491" y="-1114.3" font-family="Times,serif" font-size="14.00">get_cities_by_uf</text>
<text text-anchor="start" x="491" y="-1099.3" font-family="Times,serif" font-size="14.00">pundit_user</text>
<polyline fill="none" stroke="black" points="483,-1091.5 657,-1091.5 "/>
<polyline fill="none" stroke="black" points="483,-1067.5 657,-1067.5 "/>
<text text-anchor="start" x="491" y="-1052.3" font-family="Times,serif" font-size="14.00">_layout</text>
<text text-anchor="start" x="491" y="-1037.3" font-family="Times,serif" font-size="14.00">user_not_authorized</text>
</g>
</g>
</svg>
