<?xml version="1.0" encoding="UTF-8" standalone="no"?>
<!DOCTYPE svg PUBLIC "-//W3C//DTD SVG 1.1//EN"
 "http://www.w3.org/Graphics/SVG/1.1/DTD/svg11.dtd">
<!-- Generated by graphviz version 2.43.0 (0)
 -->
<!-- Title: models_diagram Pages: 1 -->
<svg width="2668pt" height="1891pt"
 viewBox="0.00 0.00 2668.00 1891.00" xmlns="http://www.w3.org/2000/svg" xmlns:xlink="http://www.w3.org/1999/xlink">
<g id="graph0" class="graph" transform="scale(1 1) rotate(0) translate(4 1887)">
<title>models_diagram</title>
<polygon fill="transparent" stroke="transparent" points="-4,4 -4,-1887 2664,-1887 2664,4 -4,4"/>
<!-- _diagram_info -->
<g id="node1" class="node">
<title>_diagram_info</title>
<text text-anchor="start" x="116" y="-1749.1" font-family="Times,serif" font-size="13.00">Models diagram</text>
<text text-anchor="start" x="116" y="-1735.1" font-family="Times,serif" font-size="13.00">Date: Dec 17 2021 &#45; 16:18</text>
<text text-anchor="start" x="116" y="-1721.1" font-family="Times,serif" font-size="13.00">Migration version: 20210710204434</text>
<text text-anchor="start" x="116" y="-1707.1" font-family="Times,serif" font-size="13.00">Generated by RailRoady 1.6.0</text>
<text text-anchor="start" x="116" y="-1693.1" font-family="Times,serif" font-size="13.00">http://railroady.prestonlee.com</text>
</g>
<!-- City -->
<g id="node2" class="node">
<title>City</title>
<path fill="none" stroke="black" d="M271,-159.5C271,-159.5 562,-159.5 562,-159.5 568,-159.5 574,-165.5 574,-171.5 574,-171.5 574,-283.5 574,-283.5 574,-289.5 568,-295.5 562,-295.5 562,-295.5 271,-295.5 271,-295.5 265,-295.5 259,-289.5 259,-283.5 259,-283.5 259,-171.5 259,-171.5 259,-165.5 265,-159.5 271,-159.5"/>
<text text-anchor="middle" x="416.5" y="-280.3" font-family="Times,serif" font-size="14.00">City</text>
<polyline fill="none" stroke="black" points="259,-272.5 574,-272.5 "/>
<text text-anchor="start" x="267" y="-257.3" font-family="Times,serif" font-size="14.00">id :bigint</text>
<text text-anchor="start" x="267" y="-242.3" font-family="Times,serif" font-size="14.00">name :character varying</text>
<text text-anchor="start" x="267" y="-227.3" font-family="Times,serif" font-size="14.00">code :character varying</text>
<text text-anchor="start" x="267" y="-212.3" font-family="Times,serif" font-size="14.00">capital :boolean</text>
<text text-anchor="start" x="267" y="-197.3" font-family="Times,serif" font-size="14.00">state_id :integer</text>
<text text-anchor="start" x="267" y="-182.3" font-family="Times,serif" font-size="14.00">created_at :timestamp without time zone</text>
<text text-anchor="start" x="267" y="-167.3" font-family="Times,serif" font-size="14.00">updated_at :timestamp without time zone</text>
</g>
<!-- State -->
<g id="node11" class="node">
<title>State</title>
<path fill="none" stroke="black" d="M49,-0.5C49,-0.5 340,-0.5 340,-0.5 346,-0.5 352,-6.5 352,-12.5 352,-12.5 352,-109.5 352,-109.5 352,-115.5 346,-121.5 340,-121.5 340,-121.5 49,-121.5 49,-121.5 43,-121.5 37,-115.5 37,-109.5 37,-109.5 37,-12.5 37,-12.5 37,-6.5 43,-0.5 49,-0.5"/>
<text text-anchor="middle" x="194.5" y="-106.3" font-family="Times,serif" font-size="14.00">State</text>
<polyline fill="none" stroke="black" points="37,-98.5 352,-98.5 "/>
<text text-anchor="start" x="45" y="-83.3" font-family="Times,serif" font-size="14.00">id :bigint</text>
<text text-anchor="start" x="45" y="-68.3" font-family="Times,serif" font-size="14.00">name :character varying</text>
<text text-anchor="start" x="45" y="-53.3" font-family="Times,serif" font-size="14.00">acronym :character varying</text>
<text text-anchor="start" x="45" y="-38.3" font-family="Times,serif" font-size="14.00">region_id :integer</text>
<text text-anchor="start" x="45" y="-23.3" font-family="Times,serif" font-size="14.00">created_at :timestamp without time zone</text>
<text text-anchor="start" x="45" y="-8.3" font-family="Times,serif" font-size="14.00">updated_at :timestamp without time zone</text>
</g>
<!-- City&#45;&gt;State -->
<g id="edge1" class="edge">
<title>City&#45;&gt;State</title>
<path fill="none" stroke="#f48d08" d="M317.52,-153.16C306.03,-144.64 294.37,-136 283.04,-127.61"/>
<polygon fill="#f48d08" stroke="#f48d08" points="317.85,-153.4 323.2,-162.97 321.87,-156.38 325.88,-159.35 325.88,-159.35 325.88,-159.35 321.87,-156.38 328.56,-155.74 317.85,-153.4 317.85,-153.4"/>
<polygon fill="#f48d08" stroke="#f48d08" points="282.89,-127.49 277.53,-117.92 278.87,-124.52 274.85,-121.54 274.85,-121.54 274.85,-121.54 278.87,-124.52 272.17,-125.16 282.89,-127.49 282.89,-127.49"/>
</g>
<!-- Admin -->
<g id="node3" class="node">
<title>Admin</title>
<path fill="none" stroke="black" d="M1415,-1671.5C1415,-1671.5 1706,-1671.5 1706,-1671.5 1712,-1671.5 1718,-1677.5 1718,-1683.5 1718,-1683.5 1718,-1765.5 1718,-1765.5 1718,-1771.5 1712,-1777.5 1706,-1777.5 1706,-1777.5 1415,-1777.5 1415,-1777.5 1409,-1777.5 1403,-1771.5 1403,-1765.5 1403,-1765.5 1403,-1683.5 1403,-1683.5 1403,-1677.5 1409,-1671.5 1415,-1671.5"/>
<text text-anchor="middle" x="1560.5" y="-1762.3" font-family="Times,serif" font-size="14.00">Admin</text>
<polyline fill="none" stroke="black" points="1403,-1754.5 1718,-1754.5 "/>
<text text-anchor="start" x="1411" y="-1739.3" font-family="Times,serif" font-size="14.00">id :bigint</text>
<text text-anchor="start" x="1411" y="-1724.3" font-family="Times,serif" font-size="14.00">email :character varying</text>
<text text-anchor="start" x="1411" y="-1709.3" font-family="Times,serif" font-size="14.00">encrypted_password :character varying</text>
<text text-anchor="start" x="1411" y="-1694.3" font-family="Times,serif" font-size="14.00">created_at :timestamp without time zone</text>
<text text-anchor="start" x="1411" y="-1679.3" font-family="Times,serif" font-size="14.00">updated_at :timestamp without time zone</text>
</g>
<!-- Raffle -->
<g id="node4" class="node">
<title>Raffle</title>
<path fill="none" stroke="black" d="M1082,-1566.5C1082,-1566.5 1373,-1566.5 1373,-1566.5 1379,-1566.5 1385,-1572.5 1385,-1578.5 1385,-1578.5 1385,-1870.5 1385,-1870.5 1385,-1876.5 1379,-1882.5 1373,-1882.5 1373,-1882.5 1082,-1882.5 1082,-1882.5 1076,-1882.5 1070,-1876.5 1070,-1870.5 1070,-1870.5 1070,-1578.5 1070,-1578.5 1070,-1572.5 1076,-1566.5 1082,-1566.5"/>
<text text-anchor="middle" x="1227.5" y="-1867.3" font-family="Times,serif" font-size="14.00">Raffle</text>
<polyline fill="none" stroke="black" points="1070,-1859.5 1385,-1859.5 "/>
<text text-anchor="start" x="1078" y="-1844.3" font-family="Times,serif" font-size="14.00">id :bigint</text>
<text text-anchor="start" x="1078" y="-1829.3" font-family="Times,serif" font-size="14.00">institution_id :integer</text>
<text text-anchor="start" x="1078" y="-1814.3" font-family="Times,serif" font-size="14.00">user_id :integer</text>
<text text-anchor="start" x="1078" y="-1799.3" font-family="Times,serif" font-size="14.00">category_id :integer</text>
<text text-anchor="start" x="1078" y="-1784.3" font-family="Times,serif" font-size="14.00">condition_id :integer</text>
<text text-anchor="start" x="1078" y="-1769.3" font-family="Times,serif" font-size="14.00">raffle_status_id :integer</text>
<text text-anchor="start" x="1078" y="-1754.3" font-family="Times,serif" font-size="14.00">delivery_type_id :integer</text>
<text text-anchor="start" x="1078" y="-1739.3" font-family="Times,serif" font-size="14.00">winner_ticket_id :integer</text>
<text text-anchor="start" x="1078" y="-1724.3" font-family="Times,serif" font-size="14.00">title :character varying</text>
<text text-anchor="start" x="1078" y="-1709.3" font-family="Times,serif" font-size="14.00">description :text</text>
<text text-anchor="start" x="1078" y="-1694.3" font-family="Times,serif" font-size="14.00">prize :character varying</text>
<text text-anchor="start" x="1078" y="-1679.3" font-family="Times,serif" font-size="14.00">prize_description :text</text>
<text text-anchor="start" x="1078" y="-1664.3" font-family="Times,serif" font-size="14.00">unit_value :double precision</text>
<text text-anchor="start" x="1078" y="-1649.3" font-family="Times,serif" font-size="14.00">tickets_number :integer</text>
<text text-anchor="start" x="1078" y="-1634.3" font-family="Times,serif" font-size="14.00">tickets_sold :integer</text>
<text text-anchor="start" x="1078" y="-1619.3" font-family="Times,serif" font-size="14.00">draw_date :timestamp without time zone</text>
<text text-anchor="start" x="1078" y="-1604.3" font-family="Times,serif" font-size="14.00">finish_date :timestamp without time zone</text>
<text text-anchor="start" x="1078" y="-1589.3" font-family="Times,serif" font-size="14.00">created_at :timestamp without time zone</text>
<text text-anchor="start" x="1078" y="-1574.3" font-family="Times,serif" font-size="14.00">updated_at :timestamp without time zone</text>
</g>
<!-- DeliveryType -->
<g id="node6" class="node">
<title>DeliveryType</title>
<path fill="none" stroke="black" d="M2337,-1393.5C2337,-1393.5 2648,-1393.5 2648,-1393.5 2654,-1393.5 2660,-1399.5 2660,-1405.5 2660,-1405.5 2660,-1472.5 2660,-1472.5 2660,-1478.5 2654,-1484.5 2648,-1484.5 2648,-1484.5 2337,-1484.5 2337,-1484.5 2331,-1484.5 2325,-1478.5 2325,-1472.5 2325,-1472.5 2325,-1405.5 2325,-1405.5 2325,-1399.5 2331,-1393.5 2337,-1393.5"/>
<text text-anchor="middle" x="2492.5" y="-1469.3" font-family="Times,serif" font-size="14.00">DeliveryType</text>
<polyline fill="none" stroke="black" points="2325,-1461.5 2660,-1461.5 "/>
<text text-anchor="start" x="2333" y="-1446.3" font-family="Times,serif" font-size="14.00">id :bigint</text>
<text text-anchor="start" x="2333" y="-1431.3" font-family="Times,serif" font-size="14.00">name :character varying</text>
<text text-anchor="start" x="2333" y="-1416.3" font-family="Times,serif" font-size="14.00">created_at :timestamp(6) without time zone</text>
<text text-anchor="start" x="2333" y="-1401.3" font-family="Times,serif" font-size="14.00">updated_at :timestamp(6) without time zone</text>
</g>
<!-- Raffle&#45;&gt;DeliveryType -->
<g id="edge5" class="edge">
<title>Raffle&#45;&gt;DeliveryType</title>
<path fill="none" stroke="#3d547b" d="M1394.21,-1566.12C1394.3,-1566.08 1394.4,-1566.04 1394.5,-1566 1470.46,-1534.75 2051.79,-1556.31 2133.5,-1548 2215.72,-1539.64 2237.32,-1538.68 2316.5,-1515 2340.52,-1507.82 2365.67,-1498.35 2389.21,-1488.57"/>
<polygon fill="#3d547b" stroke="#3d547b" points="1394.32,-1566.07 1383.35,-1566.01 1389.75,-1568.1 1385.18,-1570.12 1385.18,-1570.12 1385.18,-1570.12 1389.75,-1568.1 1387,-1574.24 1394.32,-1566.07 1394.32,-1566.07"/>
<polygon fill="#3d547b" stroke="#3d547b" points="2389.27,-1488.54 2400.23,-1488.81 2393.88,-1486.6 2398.49,-1484.66 2398.49,-1484.66 2398.49,-1484.66 2393.88,-1486.6 2396.74,-1480.51 2389.27,-1488.54 2389.27,-1488.54"/>
</g>
<!-- Ticket -->
<g id="node7" class="node">
<title>Ticket</title>
<path fill="none" stroke="black" d="M395,-1363.5C395,-1363.5 710,-1363.5 710,-1363.5 716,-1363.5 722,-1369.5 722,-1375.5 722,-1375.5 722,-1502.5 722,-1502.5 722,-1508.5 716,-1514.5 710,-1514.5 710,-1514.5 395,-1514.5 395,-1514.5 389,-1514.5 383,-1508.5 383,-1502.5 383,-1502.5 383,-1375.5 383,-1375.5 383,-1369.5 389,-1363.5 395,-1363.5"/>
<text text-anchor="middle" x="552.5" y="-1499.3" font-family="Times,serif" font-size="14.00">Ticket</text>
<polyline fill="none" stroke="black" points="383,-1491.5 722,-1491.5 "/>
<text text-anchor="start" x="391" y="-1476.3" font-family="Times,serif" font-size="14.00">id :bigint</text>
<text text-anchor="start" x="391" y="-1461.3" font-family="Times,serif" font-size="14.00">raffle_id :integer</text>
<text text-anchor="start" x="391" y="-1446.3" font-family="Times,serif" font-size="14.00">user_id :integer</text>
<text text-anchor="start" x="391" y="-1431.3" font-family="Times,serif" font-size="14.00">ticket_status_id :integer</text>
<text text-anchor="start" x="391" y="-1416.3" font-family="Times,serif" font-size="14.00">number :integer</text>
<text text-anchor="start" x="391" y="-1401.3" font-family="Times,serif" font-size="14.00">purchase_date :timestamp without time zone</text>
<text text-anchor="start" x="391" y="-1386.3" font-family="Times,serif" font-size="14.00">created_at :timestamp without time zone</text>
<text text-anchor="start" x="391" y="-1371.3" font-family="Times,serif" font-size="14.00">updated_at :timestamp without time zone</text>
</g>
<!-- Raffle&#45;&gt;Ticket -->
<g id="edge7" class="edge">
<title>Raffle&#45;&gt;Ticket</title>
<path fill="none" stroke="#c25ac0" d="M1060.22,-1665.81C963.93,-1633.84 840.23,-1594.84 728.5,-1566 689.42,-1555.91 673.99,-1568.96 639.5,-1548 627.99,-1541.01 617.36,-1531.91 607.77,-1521.97"/>
<polygon fill="#c25ac0" stroke="#c25ac0" points="1060.26,-1665.82 1068.32,-1673.25 1065,-1667.4 1069.75,-1668.98 1069.75,-1668.98 1069.75,-1668.98 1065,-1667.4 1071.17,-1664.71 1060.26,-1665.82 1060.26,-1665.82"/>
<polygon fill="#c25ac0" stroke="#c25ac0" points="607.76,-1521.96 604.29,-1511.55 604.37,-1518.28 600.98,-1514.6 600.98,-1514.6 600.98,-1514.6 604.37,-1518.28 597.67,-1517.65 607.76,-1521.96 607.76,-1521.96"/>
<text text-anchor="middle" x="688" y="-1536.8" font-family="Times,serif" font-size="14.00">winner_ticket</text>
</g>
<!-- Raffle&#45;&gt;Ticket -->
<g id="edge8" class="edge">
<title>Raffle&#45;&gt;Ticket</title>
<path fill="none" stroke="#631489" d="M1060.35,-1664.06C964.24,-1631.58 840.66,-1592.65 728.5,-1566 679.88,-1554.45 658.89,-1576.01 617.5,-1548 607.59,-1541.29 598.94,-1532.52 591.48,-1522.88"/>
<polygon fill="#631489" stroke="#631489" points="1060.39,-1664.08 1068.42,-1671.55 1065.13,-1665.68 1069.86,-1667.29 1069.86,-1667.29 1069.86,-1667.29 1065.13,-1665.68 1071.31,-1663.03 1060.39,-1664.08 1060.39,-1664.08"/>
<polygon fill="#631489" stroke="#631489" points="591.35,-1522.7 589.13,-1511.96 588.42,-1518.65 585.49,-1514.6 585.49,-1514.6 585.49,-1514.6 588.42,-1518.65 581.84,-1517.23 591.35,-1522.7 591.35,-1522.7"/>
</g>
<!-- Institution -->
<g id="node12" class="node">
<title>Institution</title>
<path fill="none" stroke="black" d="M572.5,-788.5C572.5,-788.5 954.5,-788.5 954.5,-788.5 960.5,-788.5 966.5,-794.5 966.5,-800.5 966.5,-800.5 966.5,-1332.5 966.5,-1332.5 966.5,-1338.5 960.5,-1344.5 954.5,-1344.5 954.5,-1344.5 572.5,-1344.5 572.5,-1344.5 566.5,-1344.5 560.5,-1338.5 560.5,-1332.5 560.5,-1332.5 560.5,-800.5 560.5,-800.5 560.5,-794.5 566.5,-788.5 572.5,-788.5"/>
<text text-anchor="middle" x="763.5" y="-1329.3" font-family="Times,serif" font-size="14.00">Institution</text>
<polyline fill="none" stroke="black" points="560.5,-1321.5 966.5,-1321.5 "/>
<text text-anchor="start" x="568.5" y="-1306.3" font-family="Times,serif" font-size="14.00">id :bigint</text>
<text text-anchor="start" x="568.5" y="-1291.3" font-family="Times,serif" font-size="14.00">cnpj :character varying</text>
<text text-anchor="start" x="568.5" y="-1276.3" font-family="Times,serif" font-size="14.00">email :character varying</text>
<text text-anchor="start" x="568.5" y="-1261.3" font-family="Times,serif" font-size="14.00">encrypted_password :character varying</text>
<text text-anchor="start" x="568.5" y="-1246.3" font-family="Times,serif" font-size="14.00">corporate_name :character varying</text>
<text text-anchor="start" x="568.5" y="-1231.3" font-family="Times,serif" font-size="14.00">social_reason :character varying</text>
<text text-anchor="start" x="568.5" y="-1216.3" font-family="Times,serif" font-size="14.00">address :character varying</text>
<text text-anchor="start" x="568.5" y="-1201.3" font-family="Times,serif" font-size="14.00">number :character varying</text>
<text text-anchor="start" x="568.5" y="-1186.3" font-family="Times,serif" font-size="14.00">complement :character varying</text>
<text text-anchor="start" x="568.5" y="-1171.3" font-family="Times,serif" font-size="14.00">neighborhood :character varying</text>
<text text-anchor="start" x="568.5" y="-1156.3" font-family="Times,serif" font-size="14.00">zipCode :character varying</text>
<text text-anchor="start" x="568.5" y="-1141.3" font-family="Times,serif" font-size="14.00">city_id :integer</text>
<text text-anchor="start" x="568.5" y="-1126.3" font-family="Times,serif" font-size="14.00">phone_number :character varying</text>
<text text-anchor="start" x="568.5" y="-1111.3" font-family="Times,serif" font-size="14.00">phone_number2 :character varying</text>
<text text-anchor="start" x="568.5" y="-1096.3" font-family="Times,serif" font-size="14.00">bank_number :integer</text>
<text text-anchor="start" x="568.5" y="-1081.3" font-family="Times,serif" font-size="14.00">agency_number :integer</text>
<text text-anchor="start" x="568.5" y="-1066.3" font-family="Times,serif" font-size="14.00">account_number :integer</text>
<text text-anchor="start" x="568.5" y="-1051.3" font-family="Times,serif" font-size="14.00">qualification :character varying</text>
<text text-anchor="start" x="568.5" y="-1036.3" font-family="Times,serif" font-size="14.00">site :character varying</text>
<text text-anchor="start" x="568.5" y="-1021.3" font-family="Times,serif" font-size="14.00">about :text</text>
<text text-anchor="start" x="568.5" y="-1006.3" font-family="Times,serif" font-size="14.00">status :boolean</text>
<text text-anchor="start" x="568.5" y="-991.3" font-family="Times,serif" font-size="14.00">reset_password_token :character varying</text>
<text text-anchor="start" x="568.5" y="-976.3" font-family="Times,serif" font-size="14.00">reset_password_sent_at :timestamp without time zone</text>
<text text-anchor="start" x="568.5" y="-961.3" font-family="Times,serif" font-size="14.00">remember_created_at :timestamp without time zone</text>
<text text-anchor="start" x="568.5" y="-946.3" font-family="Times,serif" font-size="14.00">sign_in_count :integer</text>
<text text-anchor="start" x="568.5" y="-931.3" font-family="Times,serif" font-size="14.00">current_sign_in_at :timestamp without time zone</text>
<text text-anchor="start" x="568.5" y="-916.3" font-family="Times,serif" font-size="14.00">last_sign_in_at :timestamp without time zone</text>
<text text-anchor="start" x="568.5" y="-901.3" font-family="Times,serif" font-size="14.00">current_sign_in_ip :inet</text>
<text text-anchor="start" x="568.5" y="-886.3" font-family="Times,serif" font-size="14.00">last_sign_in_ip :inet</text>
<text text-anchor="start" x="568.5" y="-871.3" font-family="Times,serif" font-size="14.00">confirmation_token :character varying</text>
<text text-anchor="start" x="568.5" y="-856.3" font-family="Times,serif" font-size="14.00">confirmed_at :timestamp without time zone</text>
<text text-anchor="start" x="568.5" y="-841.3" font-family="Times,serif" font-size="14.00">confirmation_sent_at :timestamp without time zone</text>
<text text-anchor="start" x="568.5" y="-826.3" font-family="Times,serif" font-size="14.00">unconfirmed_email :character varying</text>
<text text-anchor="start" x="568.5" y="-811.3" font-family="Times,serif" font-size="14.00">created_at :timestamp without time zone</text>
<text text-anchor="start" x="568.5" y="-796.3" font-family="Times,serif" font-size="14.00">updated_at :timestamp without time zone</text>
</g>
<!-- Raffle&#45;&gt;Institution -->
<g id="edge2" class="edge">
<title>Raffle&#45;&gt;Institution</title>
<path fill="none" stroke="#9bad97" d="M1059.98,-1693.84C957.42,-1666.16 833.88,-1613.59 769.5,-1515 750.72,-1486.24 744.2,-1423.99 743.7,-1354.79"/>
<polygon fill="#9bad97" stroke="#9bad97" points="1060.17,-1693.89 1068.69,-1700.79 1065,-1695.17 1069.84,-1696.44 1069.84,-1696.44 1069.84,-1696.44 1065,-1695.17 1070.98,-1692.09 1060.17,-1693.89 1060.17,-1693.89"/>
<polygon fill="#9bad97" stroke="#9bad97" points="743.7,-1354.54 748.17,-1344.52 743.69,-1349.54 743.67,-1344.54 743.67,-1344.54 743.67,-1344.54 743.69,-1349.54 739.17,-1344.55 743.7,-1354.54 743.7,-1354.54"/>
</g>
<!-- Condition -->
<g id="node13" class="node">
<title>Condition</title>
<path fill="none" stroke="black" d="M791,-1393.5C791,-1393.5 1102,-1393.5 1102,-1393.5 1108,-1393.5 1114,-1399.5 1114,-1405.5 1114,-1405.5 1114,-1472.5 1114,-1472.5 1114,-1478.5 1108,-1484.5 1102,-1484.5 1102,-1484.5 791,-1484.5 791,-1484.5 785,-1484.5 779,-1478.5 779,-1472.5 779,-1472.5 779,-1405.5 779,-1405.5 779,-1399.5 785,-1393.5 791,-1393.5"/>
<text text-anchor="middle" x="946.5" y="-1469.3" font-family="Times,serif" font-size="14.00">Condition</text>
<polyline fill="none" stroke="black" points="779,-1461.5 1114,-1461.5 "/>
<text text-anchor="start" x="787" y="-1446.3" font-family="Times,serif" font-size="14.00">id :bigint</text>
<text text-anchor="start" x="787" y="-1431.3" font-family="Times,serif" font-size="14.00">name :character varying</text>
<text text-anchor="start" x="787" y="-1416.3" font-family="Times,serif" font-size="14.00">created_at :timestamp(6) without time zone</text>
<text text-anchor="start" x="787" y="-1401.3" font-family="Times,serif" font-size="14.00">updated_at :timestamp(6) without time zone</text>
</g>
<!-- Raffle&#45;&gt;Condition -->
<g id="edge4" class="edge">
<title>Raffle&#45;&gt;Condition</title>
<path fill="none" stroke="#6e089f" d="M1064.5,-1559.04C1040.43,-1534.76 1017.26,-1511.39 997.93,-1491.88"/>
<polygon fill="#6e089f" stroke="#6e089f" points="1064.76,-1559.31 1068.6,-1569.58 1068.28,-1562.86 1071.8,-1566.41 1071.8,-1566.41 1071.8,-1566.41 1068.28,-1562.86 1074.99,-1563.24 1064.76,-1559.31 1064.76,-1559.31"/>
<polygon fill="#6e089f" stroke="#6e089f" points="997.75,-1491.71 993.91,-1481.44 994.23,-1488.15 990.71,-1484.6 990.71,-1484.6 990.71,-1484.6 994.23,-1488.15 987.51,-1487.77 997.75,-1491.71 997.75,-1491.71"/>
</g>
<!-- Category -->
<g id="node14" class="node">
<title>Category</title>
<path fill="none" stroke="black" d="M1144,-1401C1144,-1401 1311,-1401 1311,-1401 1317,-1401 1323,-1407 1323,-1413 1323,-1413 1323,-1465 1323,-1465 1323,-1471 1317,-1477 1311,-1477 1311,-1477 1144,-1477 1144,-1477 1138,-1477 1132,-1471 1132,-1465 1132,-1465 1132,-1413 1132,-1413 1132,-1407 1138,-1401 1144,-1401"/>
<text text-anchor="middle" x="1227.5" y="-1461.8" font-family="Times,serif" font-size="14.00">Category</text>
<polyline fill="none" stroke="black" points="1132,-1454 1323,-1454 "/>
<text text-anchor="start" x="1140" y="-1438.8" font-family="Times,serif" font-size="14.00">id :bigint</text>
<text text-anchor="start" x="1140" y="-1423.8" font-family="Times,serif" font-size="14.00">name :character varying</text>
<text text-anchor="start" x="1140" y="-1408.8" font-family="Times,serif" font-size="14.00">subcategory_id :bigint</text>
</g>
<!-- Raffle&#45;&gt;Category -->
<g id="edge3" class="edge">
<title>Raffle&#45;&gt;Category</title>
<path fill="none" stroke="#226cd1" d="M1227.5,-1556.26C1227.5,-1531 1227.5,-1506.87 1227.5,-1487.2"/>
<polygon fill="#226cd1" stroke="#226cd1" points="1227.5,-1556.41 1223,-1566.41 1227.5,-1561.41 1227.5,-1566.41 1227.5,-1566.41 1227.5,-1566.41 1227.5,-1561.41 1232,-1566.41 1227.5,-1556.41 1227.5,-1556.41"/>
<polygon fill="#226cd1" stroke="#226cd1" points="1227.5,-1487.04 1232,-1477.04 1227.5,-1482.04 1227.5,-1477.04 1227.5,-1477.04 1227.5,-1477.04 1227.5,-1482.04 1223,-1477.04 1227.5,-1487.04 1227.5,-1487.04"/>
</g>
<!-- RaffleStatus -->
<g id="node15" class="node">
<title>RaffleStatus</title>
<path fill="none" stroke="black" d="M1471,-1393.5C1471,-1393.5 1782,-1393.5 1782,-1393.5 1788,-1393.5 1794,-1399.5 1794,-1405.5 1794,-1405.5 1794,-1472.5 1794,-1472.5 1794,-1478.5 1788,-1484.5 1782,-1484.5 1782,-1484.5 1471,-1484.5 1471,-1484.5 1465,-1484.5 1459,-1478.5 1459,-1472.5 1459,-1472.5 1459,-1405.5 1459,-1405.5 1459,-1399.5 1465,-1393.5 1471,-1393.5"/>
<text text-anchor="middle" x="1626.5" y="-1469.3" font-family="Times,serif" font-size="14.00">RaffleStatus</text>
<polyline fill="none" stroke="black" points="1459,-1461.5 1794,-1461.5 "/>
<text text-anchor="start" x="1467" y="-1446.3" font-family="Times,serif" font-size="14.00">id :bigint</text>
<text text-anchor="start" x="1467" y="-1431.3" font-family="Times,serif" font-size="14.00">description :character varying</text>
<text text-anchor="start" x="1467" y="-1416.3" font-family="Times,serif" font-size="14.00">created_at :timestamp(6) without time zone</text>
<text text-anchor="start" x="1467" y="-1401.3" font-family="Times,serif" font-size="14.00">updated_at :timestamp(6) without time zone</text>
</g>
<!-- Raffle&#45;&gt;RaffleStatus -->
<g id="edge6" class="edge">
<title>Raffle&#45;&gt;RaffleStatus</title>
<path fill="none" stroke="#014295" d="M1393.35,-1566.84C1393.73,-1566.56 1394.12,-1566.28 1394.5,-1566 1434.18,-1537.26 1481.18,-1510.55 1522.47,-1489.19"/>
<polygon fill="#014295" stroke="#014295" points="1393.33,-1566.85 1382.62,-1569.2 1389.31,-1569.83 1385.3,-1572.81 1385.3,-1572.81 1385.3,-1572.81 1389.31,-1569.83 1387.98,-1576.43 1393.33,-1566.85 1393.33,-1566.85"/>
<polygon fill="#014295" stroke="#014295" points="1522.56,-1489.14 1533.51,-1488.57 1527.01,-1486.85 1531.46,-1484.57 1531.46,-1484.57 1531.46,-1484.57 1527.01,-1486.85 1529.4,-1480.57 1522.56,-1489.14 1522.56,-1489.14"/>
</g>
<!-- ActiveStorage::Attachment -->
<g id="node17" class="node">
<title>ActiveStorage::Attachment</title>
<ellipse fill="none" stroke="black" cx="1947.5" cy="-1439" rx="135.68" ry="18"/>
<text text-anchor="middle" x="1947.5" y="-1435.3" font-family="Times,serif" font-size="14.00">ActiveStorage::Attachment</text>
</g>
<!-- Raffle&#45;&gt;ActiveStorage::Attachment -->
<g id="edge9" class="edge">
<title>Raffle&#45;&gt;ActiveStorage::Attachment</title>
<path fill="none" stroke="#fcd83d" d="M1394.2,-1566.14C1394.3,-1566.09 1394.4,-1566.05 1394.5,-1566 1477.37,-1526.98 1716.06,-1542.25 1803.5,-1515 1843.32,-1502.59 1885.23,-1479.46 1913.49,-1462.16"/>
<polygon fill="#fcd83d" stroke="#fcd83d" points="1394.04,-1566.22 1383.09,-1566.67 1389.57,-1568.46 1385.1,-1570.7 1385.1,-1570.7 1385.1,-1570.7 1389.57,-1568.46 1387.11,-1574.72 1394.04,-1566.22 1394.04,-1566.22"/>
<polygon fill="#fcd83d" stroke="#fcd83d" points="1913.68,-1462.05 1924.55,-1460.59 1917.93,-1459.41 1922.17,-1456.77 1922.17,-1456.77 1922.17,-1456.77 1917.93,-1459.41 1919.8,-1452.95 1913.68,-1462.05 1913.68,-1462.05"/>
<text text-anchor="middle" x="1719.5" y="-1536.8" font-family="Times,serif" font-size="14.00">images_attachments</text>
</g>
<!-- ActiveStorage::Blob -->
<g id="node18" class="node">
<title>ActiveStorage::Blob</title>
<ellipse fill="none" stroke="black" cx="2204.5" cy="-1439" rx="102.88" ry="18"/>
<text text-anchor="middle" x="2204.5" y="-1435.3" font-family="Times,serif" font-size="14.00">ActiveStorage::Blob</text>
</g>
<!-- Raffle&#45;&gt;ActiveStorage::Blob -->
<g id="edge10" class="edge">
<title>Raffle&#45;&gt;ActiveStorage::Blob</title>
<path fill="none" stroke="#485e5f" d="M1394.21,-1566.12C1394.31,-1566.08 1394.4,-1566.04 1394.5,-1566 1435.78,-1548.53 1752.81,-1551.49 1797.5,-1548 1929.03,-1537.72 1968.6,-1560.33 2092.5,-1515 2124.32,-1503.36 2155.97,-1480.9 2177.47,-1463.58"/>
<polygon fill="#485e5f" stroke="#485e5f" points="1394.32,-1566.07 1383.35,-1566.11 1389.76,-1568.14 1385.21,-1570.21 1385.21,-1570.21 1385.21,-1570.21 1389.76,-1568.14 1387.07,-1574.31 1394.32,-1566.07 1394.32,-1566.07"/>
<polygon fill="#485e5f" stroke="#485e5f" points="2177.75,-1463.34 2188.33,-1460.46 2181.61,-1460.17 2185.47,-1456.99 2185.47,-1456.99 2185.47,-1456.99 2181.61,-1460.17 2182.61,-1453.51 2177.75,-1463.34 2177.75,-1463.34"/>
<text text-anchor="middle" x="2081" y="-1536.8" font-family="Times,serif" font-size="14.00">images_blobs</text>
</g>
<!-- TicketStatus -->
<g id="node5" class="node">
<title>TicketStatus</title>
<path fill="none" stroke="black" d="M397,-1679C397,-1679 708,-1679 708,-1679 714,-1679 720,-1685 720,-1691 720,-1691 720,-1758 720,-1758 720,-1764 714,-1770 708,-1770 708,-1770 397,-1770 397,-1770 391,-1770 385,-1764 385,-1758 385,-1758 385,-1691 385,-1691 385,-1685 391,-1679 397,-1679"/>
<text text-anchor="middle" x="552.5" y="-1754.8" font-family="Times,serif" font-size="14.00">TicketStatus</text>
<polyline fill="none" stroke="black" points="385,-1747 720,-1747 "/>
<text text-anchor="start" x="393" y="-1731.8" font-family="Times,serif" font-size="14.00">id :bigint</text>
<text text-anchor="start" x="393" y="-1716.8" font-family="Times,serif" font-size="14.00">description :character varying</text>
<text text-anchor="start" x="393" y="-1701.8" font-family="Times,serif" font-size="14.00">created_at :timestamp(6) without time zone</text>
<text text-anchor="start" x="393" y="-1686.8" font-family="Times,serif" font-size="14.00">updated_at :timestamp(6) without time zone</text>
</g>
<!-- TicketStatus&#45;&gt;Ticket -->
<g id="edge11" class="edge">
<title>TicketStatus&#45;&gt;Ticket</title>
<path fill="none" stroke="#b64cdc" d="M552.5,-1668.72C552.5,-1627.91 552.5,-1571.41 552.5,-1524.79"/>
<polygon fill="#b64cdc" stroke="#b64cdc" points="552.5,-1668.89 548,-1678.89 552.5,-1673.89 552.5,-1678.89 552.5,-1678.89 552.5,-1678.89 552.5,-1673.89 557,-1678.89 552.5,-1668.89 552.5,-1668.89"/>
<polygon fill="#b64cdc" stroke="#b64cdc" points="552.5,-1524.69 557,-1514.69 552.5,-1519.69 552.5,-1514.69 552.5,-1514.69 552.5,-1514.69 552.5,-1519.69 548,-1514.69 552.5,-1524.69 552.5,-1524.69"/>
</g>
<!-- User -->
<g id="node9" class="node">
<title>User</title>
<path fill="none" stroke="black" d="M345.5,-333.5C345.5,-333.5 727.5,-333.5 727.5,-333.5 733.5,-333.5 739.5,-339.5 739.5,-345.5 739.5,-345.5 739.5,-757.5 739.5,-757.5 739.5,-763.5 733.5,-769.5 727.5,-769.5 727.5,-769.5 345.5,-769.5 345.5,-769.5 339.5,-769.5 333.5,-763.5 333.5,-757.5 333.5,-757.5 333.5,-345.5 333.5,-345.5 333.5,-339.5 339.5,-333.5 345.5,-333.5"/>
<text text-anchor="middle" x="536.5" y="-754.3" font-family="Times,serif" font-size="14.00">User</text>
<polyline fill="none" stroke="black" points="333.5,-746.5 739.5,-746.5 "/>
<text text-anchor="start" x="341.5" y="-731.3" font-family="Times,serif" font-size="14.00">id :bigint</text>
<text text-anchor="start" x="341.5" y="-716.3" font-family="Times,serif" font-size="14.00">cpf :character varying</text>
<text text-anchor="start" x="341.5" y="-701.3" font-family="Times,serif" font-size="14.00">name :character varying</text>
<text text-anchor="start" x="341.5" y="-686.3" font-family="Times,serif" font-size="14.00">email :character varying</text>
<text text-anchor="start" x="341.5" y="-671.3" font-family="Times,serif" font-size="14.00">encrypted_password :character varying</text>
<text text-anchor="start" x="341.5" y="-656.3" font-family="Times,serif" font-size="14.00">address :character varying</text>
<text text-anchor="start" x="341.5" y="-641.3" font-family="Times,serif" font-size="14.00">number :character varying</text>
<text text-anchor="start" x="341.5" y="-626.3" font-family="Times,serif" font-size="14.00">complement :character varying</text>
<text text-anchor="start" x="341.5" y="-611.3" font-family="Times,serif" font-size="14.00">neighborhood :character varying</text>
<text text-anchor="start" x="341.5" y="-596.3" font-family="Times,serif" font-size="14.00">zipCode :character varying</text>
<text text-anchor="start" x="341.5" y="-581.3" font-family="Times,serif" font-size="14.00">phone_number :character varying</text>
<text text-anchor="start" x="341.5" y="-566.3" font-family="Times,serif" font-size="14.00">cellphone_number :character varying</text>
<text text-anchor="start" x="341.5" y="-551.3" font-family="Times,serif" font-size="14.00">city_id :integer</text>
<text text-anchor="start" x="341.5" y="-536.3" font-family="Times,serif" font-size="14.00">reset_password_token :character varying</text>
<text text-anchor="start" x="341.5" y="-521.3" font-family="Times,serif" font-size="14.00">reset_password_sent_at :timestamp without time zone</text>
<text text-anchor="start" x="341.5" y="-506.3" font-family="Times,serif" font-size="14.00">remember_created_at :timestamp without time zone</text>
<text text-anchor="start" x="341.5" y="-491.3" font-family="Times,serif" font-size="14.00">sign_in_count :integer</text>
<text text-anchor="start" x="341.5" y="-476.3" font-family="Times,serif" font-size="14.00">current_sign_in_at :timestamp without time zone</text>
<text text-anchor="start" x="341.5" y="-461.3" font-family="Times,serif" font-size="14.00">last_sign_in_at :timestamp without time zone</text>
<text text-anchor="start" x="341.5" y="-446.3" font-family="Times,serif" font-size="14.00">current_sign_in_ip :inet</text>
<text text-anchor="start" x="341.5" y="-431.3" font-family="Times,serif" font-size="14.00">last_sign_in_ip :inet</text>
<text text-anchor="start" x="341.5" y="-416.3" font-family="Times,serif" font-size="14.00">confirmation_token :character varying</text>
<text text-anchor="start" x="341.5" y="-401.3" font-family="Times,serif" font-size="14.00">confirmed_at :timestamp without time zone</text>
<text text-anchor="start" x="341.5" y="-386.3" font-family="Times,serif" font-size="14.00">confirmation_sent_at :timestamp without time zone</text>
<text text-anchor="start" x="341.5" y="-371.3" font-family="Times,serif" font-size="14.00">unconfirmed_email :character varying</text>
<text text-anchor="start" x="341.5" y="-356.3" font-family="Times,serif" font-size="14.00">created_at :timestamp without time zone</text>
<text text-anchor="start" x="341.5" y="-341.3" font-family="Times,serif" font-size="14.00">updated_at :timestamp without time zone</text>
</g>
<!-- Ticket&#45;&gt;User -->
<g id="edge12" class="edge">
<title>Ticket&#45;&gt;User</title>
<path fill="none" stroke="#36602b" d="M550.97,-1353.13C548.6,-1222.39 543.99,-967.28 540.61,-780.03"/>
<polygon fill="#36602b" stroke="#36602b" points="550.97,-1353.27 546.65,-1363.35 551.06,-1358.27 551.15,-1363.27 551.15,-1363.27 551.15,-1363.27 551.06,-1358.27 555.65,-1363.18 550.97,-1353.27 550.97,-1353.27"/>
<polygon fill="#36602b" stroke="#36602b" points="540.61,-779.76 544.92,-769.68 540.52,-774.76 540.43,-769.76 540.43,-769.76 540.43,-769.76 540.52,-774.76 535.93,-769.84 540.61,-779.76 540.61,-779.76"/>
</g>
<!-- Region -->
<g id="node8" class="node">
<title>Region</title>
<path fill="none" stroke="black" d="M12,-506C12,-506 303,-506 303,-506 309,-506 315,-512 315,-518 315,-518 315,-585 315,-585 315,-591 309,-597 303,-597 303,-597 12,-597 12,-597 6,-597 0,-591 0,-585 0,-585 0,-518 0,-518 0,-512 6,-506 12,-506"/>
<text text-anchor="middle" x="157.5" y="-581.8" font-family="Times,serif" font-size="14.00">Region</text>
<polyline fill="none" stroke="black" points="0,-574 315,-574 "/>
<text text-anchor="start" x="8" y="-558.8" font-family="Times,serif" font-size="14.00">id :bigint</text>
<text text-anchor="start" x="8" y="-543.8" font-family="Times,serif" font-size="14.00">name :character varying</text>
<text text-anchor="start" x="8" y="-528.8" font-family="Times,serif" font-size="14.00">created_at :timestamp without time zone</text>
<text text-anchor="start" x="8" y="-513.8" font-family="Times,serif" font-size="14.00">updated_at :timestamp without time zone</text>
</g>
<!-- Region&#45;&gt;City -->
<g id="edge14" class="edge">
<title>Region&#45;&gt;City</title>
<path fill="none" stroke="#4d771f" d="M196.56,-497.6C229.81,-453.07 279.23,-388.03 324.5,-333 332.44,-323.35 340.92,-313.34 349.4,-303.5"/>
<polygon fill="#4d771f" stroke="#4d771f" points="196.52,-497.65 186.94,-502.97 193.54,-501.65 190.55,-505.66 190.55,-505.66 190.55,-505.66 193.54,-501.65 194.16,-508.35 196.52,-497.65 196.52,-497.65"/>
<polygon fill="#4d771f" stroke="#4d771f" points="349.65,-303.22 359.59,-298.61 352.92,-299.44 356.19,-295.67 356.19,-295.67 356.19,-295.67 352.92,-299.44 352.79,-292.72 349.65,-303.22 349.65,-303.22"/>
</g>
<!-- Region&#45;&gt;State -->
<g id="edge13" class="edge">
<title>Region&#45;&gt;State</title>
<path fill="none" stroke="#215fa2" d="M161.64,-495.88C168.39,-406.72 181.77,-230.04 189.21,-131.88"/>
<polygon fill="#215fa2" stroke="#215fa2" points="161.64,-495.88 156.39,-505.51 161.26,-500.87 160.88,-505.85 160.88,-505.85 160.88,-505.85 161.26,-500.87 165.37,-506.19 161.64,-495.88 161.64,-495.88"/>
<polygon fill="#215fa2" stroke="#215fa2" points="189.22,-131.73 194.46,-122.1 189.6,-126.74 189.97,-121.76 189.97,-121.76 189.97,-121.76 189.6,-126.74 185.49,-121.42 189.22,-131.73 189.22,-131.73"/>
</g>
<!-- User&#45;&gt;City -->
<g id="edge15" class="edge">
<title>User&#45;&gt;City</title>
<path fill="none" stroke="#755764" d="M452.05,-323.88C449.62,-317.38 447.27,-311.06 444.99,-304.96"/>
<polygon fill="#755764" stroke="#755764" points="452.13,-324.12 451.41,-335.06 453.88,-328.8 455.63,-333.49 455.63,-333.49 455.63,-333.49 453.88,-328.8 459.84,-331.92 452.13,-324.12 452.13,-324.12"/>
<polygon fill="#755764" stroke="#755764" points="444.99,-304.94 445.71,-293.99 443.24,-300.25 441.49,-295.57 441.49,-295.57 441.49,-295.57 443.24,-300.25 437.28,-297.14 444.99,-304.94 444.99,-304.94"/>
</g>
<!-- ZipcodeRange -->
<g id="node10" class="node">
<title>ZipcodeRange</title>
<path fill="none" stroke="black" d="M1748,-1634C1748,-1634 2039,-1634 2039,-1634 2045,-1634 2051,-1640 2051,-1646 2051,-1646 2051,-1803 2051,-1803 2051,-1809 2045,-1815 2039,-1815 2039,-1815 1748,-1815 1748,-1815 1742,-1815 1736,-1809 1736,-1803 1736,-1803 1736,-1646 1736,-1646 1736,-1640 1742,-1634 1748,-1634"/>
<text text-anchor="middle" x="1893.5" y="-1799.8" font-family="Times,serif" font-size="14.00">ZipcodeRange</text>
<polyline fill="none" stroke="black" points="1736,-1792 2051,-1792 "/>
<text text-anchor="start" x="1744" y="-1776.8" font-family="Times,serif" font-size="14.00">id :bigint</text>
<text text-anchor="start" x="1744" y="-1761.8" font-family="Times,serif" font-size="14.00">cep :character varying</text>
<text text-anchor="start" x="1744" y="-1746.8" font-family="Times,serif" font-size="14.00">name :character varying</text>
<text text-anchor="start" x="1744" y="-1731.8" font-family="Times,serif" font-size="14.00">acronym :character varying</text>
<text text-anchor="start" x="1744" y="-1716.8" font-family="Times,serif" font-size="14.00">neighborhood :character varying</text>
<text text-anchor="start" x="1744" y="-1701.8" font-family="Times,serif" font-size="14.00">address :character varying</text>
<text text-anchor="start" x="1744" y="-1686.8" font-family="Times,serif" font-size="14.00">number :character varying</text>
<text text-anchor="start" x="1744" y="-1671.8" font-family="Times,serif" font-size="14.00">complement :character varying</text>
<text text-anchor="start" x="1744" y="-1656.8" font-family="Times,serif" font-size="14.00">created_at :timestamp without time zone</text>
<text text-anchor="start" x="1744" y="-1641.8" font-family="Times,serif" font-size="14.00">updated_at :timestamp without time zone</text>
</g>
<!-- Institution&#45;&gt;City -->
<g id="edge16" class="edge">
<title>Institution&#45;&gt;City</title>
<path fill="none" stroke="#ae13d4" d="M831.68,-778.03C849.42,-631.28 842.09,-457.87 748.5,-333 727.21,-304.6 655.55,-280.26 584.23,-262.23"/>
<polygon fill="#ae13d4" stroke="#ae13d4" points="831.66,-778.18 825.95,-787.54 831.04,-783.14 830.41,-788.1 830.41,-788.1 830.41,-788.1 831.04,-783.14 834.88,-788.66 831.66,-778.18 831.66,-778.18"/>
<polygon fill="#ae13d4" stroke="#ae13d4" points="583.88,-262.14 575.26,-255.36 579.03,-260.94 574.17,-259.73 574.17,-259.73 574.17,-259.73 579.03,-260.94 573.09,-264.1 583.88,-262.14 583.88,-262.14"/>
</g>
<!-- Category&#45;&gt;Category -->
<g id="edge17" class="edge">
<title>Category&#45;&gt;Category</title>
<path fill="none" stroke="#74d625" d="M1332.46,-1451.21C1337.83,-1448.19 1341,-1444.12 1341,-1439 1341,-1433.88 1337.83,-1429.81 1332.46,-1426.79"/>
<polygon fill="#74d625" stroke="#74d625" points="1332.44,-1451.22 1321.49,-1450.7 1327.79,-1453.05 1323.14,-1454.89 1323.14,-1454.89 1323.14,-1454.89 1327.79,-1453.05 1324.79,-1459.07 1332.44,-1451.22 1332.44,-1451.22"/>
<polygon fill="#74d625" stroke="#74d625" points="1332.44,-1426.78 1324.79,-1418.93 1327.79,-1424.95 1323.14,-1423.11 1323.14,-1423.11 1323.14,-1423.11 1327.79,-1424.95 1321.49,-1427.3 1332.44,-1426.78 1332.44,-1426.78"/>
<text text-anchor="middle" x="1391" y="-1435.3" font-family="Times,serif" font-size="14.00">subcategories</text>
</g>
<!-- ApplicationRecord -->
<g id="node16" class="node">
<title>ApplicationRecord</title>
<ellipse fill="none" stroke="black" cx="2164.5" cy="-1724.5" rx="95.58" ry="18"/>
<text text-anchor="middle" x="2164.5" y="-1720.8" font-family="Times,serif" font-size="14.00">ApplicationRecord</text>
</g>
</g>
</svg>
