<?xml version="1.0" encoding="UTF-8" standalone="no"?>
<!DOCTYPE svg PUBLIC "-//W3C//DTD SVG 1.1//EN"
 "http://www.w3.org/Graphics/SVG/1.1/DTD/svg11.dtd">
<!-- Generated by graphviz version 2.43.0 (0)
 -->
<!-- Title: models_diagram Pages: 1 -->
<svg width="1706pt" height="427pt"
 viewBox="0.00 0.00 1705.64 427.00" xmlns="http://www.w3.org/2000/svg" xmlns:xlink="http://www.w3.org/1999/xlink">
<g id="graph0" class="graph" transform="scale(1 1) rotate(0) translate(4 423)">
<title>models_diagram</title>
<polygon fill="transparent" stroke="transparent" points="-4,4 -4,-423 1701.64,-423 1701.64,4 -4,4"/>
<!-- _diagram_info -->
<g id="node1" class="node">
<title>_diagram_info</title>
<text text-anchor="start" x="8" y="-404.6" font-family="Times,serif" font-size="13.00">Models diagram</text>
<text text-anchor="start" x="8" y="-390.6" font-family="Times,serif" font-size="13.00">Date: Dec 17 2021 &#45; 16:18</text>
<text text-anchor="start" x="8" y="-376.6" font-family="Times,serif" font-size="13.00">Migration version: 20210710204434</text>
<text text-anchor="start" x="8" y="-362.6" font-family="Times,serif" font-size="13.00">Generated by RailRoady 1.6.0</text>
<text text-anchor="start" x="8" y="-348.6" font-family="Times,serif" font-size="13.00">http://railroady.prestonlee.com</text>
</g>
<!-- City -->
<g id="node2" class="node">
<title>City</title>
<ellipse fill="none" stroke="black" cx="373.5" cy="-91" rx="29.8" ry="18"/>
<text text-anchor="middle" x="373.5" y="-87.3" font-family="Times,serif" font-size="14.00">City</text>
</g>
<!-- State -->
<g id="node11" class="node">
<title>State</title>
<ellipse fill="none" stroke="black" cx="318.5" cy="-18" rx="36" ry="18"/>
<text text-anchor="middle" x="318.5" y="-14.3" font-family="Times,serif" font-size="14.00">State</text>
</g>
<!-- City&#45;&gt;State -->
<g id="edge1" class="edge">
<title>City&#45;&gt;State</title>
<path fill="none" stroke="#b42ecc" d="M355,-66.12C349.34,-58.81 343.11,-50.76 337.42,-43.42"/>
<polygon fill="#b42ecc" stroke="#b42ecc" points="355.17,-66.34 357.74,-77 358.23,-70.29 361.29,-74.24 361.29,-74.24 361.29,-74.24 358.23,-70.29 364.85,-71.49 355.17,-66.34 355.17,-66.34"/>
<polygon fill="#b42ecc" stroke="#b42ecc" points="337.18,-43.11 334.61,-32.45 334.12,-39.16 331.05,-35.21 331.05,-35.21 331.05,-35.21 334.12,-39.16 327.5,-37.96 337.18,-43.11 337.18,-43.11"/>
</g>
<!-- Admin -->
<g id="node3" class="node">
<title>Admin</title>
<ellipse fill="none" stroke="black" cx="793.5" cy="-380" rx="40.09" ry="18"/>
<text text-anchor="middle" x="793.5" y="-376.3" font-family="Times,serif" font-size="14.00">Admin</text>
</g>
<!-- Raffle -->
<g id="node4" class="node">
<title>Raffle</title>
<ellipse fill="none" stroke="black" cx="697.5" cy="-380" rx="37.89" ry="18"/>
<text text-anchor="middle" x="697.5" y="-376.3" font-family="Times,serif" font-size="14.00">Raffle</text>
</g>
<!-- DeliveryType -->
<g id="node6" class="node">
<title>DeliveryType</title>
<ellipse fill="none" stroke="black" cx="1625.5" cy="-272" rx="72.29" ry="18"/>
<text text-anchor="middle" x="1625.5" y="-268.3" font-family="Times,serif" font-size="14.00">DeliveryType</text>
</g>
<!-- Raffle&#45;&gt;DeliveryType -->
<g id="edge5" class="edge">
<title>Raffle&#45;&gt;DeliveryType</title>
<path fill="none" stroke="#fa015d" d="M719.86,-356.05C727.11,-350.04 735.59,-344.31 744.5,-341 801.8,-319.67 1233.56,-328.01 1294.5,-323 1406.2,-313.82 1434.02,-308.86 1544.5,-290 1550.63,-288.95 1557.01,-287.77 1563.37,-286.54"/>
<polygon fill="#fa015d" stroke="#fa015d" points="719.41,-356.45 708.96,-359.77 715.69,-359.79 711.96,-363.12 711.96,-363.12 711.96,-363.12 715.69,-359.79 714.97,-366.48 719.41,-356.45 719.41,-356.45"/>
<polygon fill="#fa015d" stroke="#fa015d" points="1563.52,-286.51 1574.2,-288.97 1568.42,-285.53 1573.32,-284.56 1573.32,-284.56 1573.32,-284.56 1568.42,-285.53 1572.45,-280.14 1563.52,-286.51 1563.52,-286.51"/>
</g>
<!-- Ticket -->
<g id="node7" class="node">
<title>Ticket</title>
<ellipse fill="none" stroke="black" cx="374.5" cy="-272" rx="38.99" ry="18"/>
<text text-anchor="middle" x="374.5" y="-268.3" font-family="Times,serif" font-size="14.00">Ticket</text>
</g>
<!-- Raffle&#45;&gt;Ticket -->
<g id="edge7" class="edge">
<title>Raffle&#45;&gt;Ticket</title>
<path fill="none" stroke="#e78776" d="M650.71,-374.61C578.63,-367.11 444.66,-349.95 405.5,-323 396.88,-317.07 390.2,-307.88 385.28,-298.99"/>
<polygon fill="#e78776" stroke="#e78776" points="650.93,-374.64 660.42,-380.13 655.9,-375.14 660.87,-375.65 660.87,-375.65 660.87,-375.65 655.9,-375.14 661.33,-371.17 650.93,-374.64 650.93,-374.64"/>
<polygon fill="#e78776" stroke="#e78776" points="385.25,-298.93 384.81,-287.98 383.02,-294.46 380.79,-289.98 380.79,-289.98 380.79,-289.98 383.02,-294.46 376.76,-291.99 385.25,-298.93 385.25,-298.93"/>
<text text-anchor="middle" x="454" y="-311.8" font-family="Times,serif" font-size="14.00">winner_ticket</text>
</g>
<!-- Raffle&#45;&gt;Ticket -->
<g id="edge8" class="edge">
<title>Raffle&#45;&gt;Ticket</title>
<path fill="none" stroke="#8fdc90" d="M651.19,-373.41C569.51,-363.15 406.63,-340.74 387.5,-323 381.14,-317.1 377.73,-308.53 375.95,-300.14"/>
<polygon fill="#8fdc90" stroke="#8fdc90" points="651.28,-373.42 660.65,-379.12 656.24,-374.04 661.21,-374.66 661.21,-374.66 661.21,-374.66 656.24,-374.04 661.76,-370.19 651.28,-373.42 651.28,-373.42"/>
<polygon fill="#8fdc90" stroke="#8fdc90" points="375.94,-300.09 378.95,-289.54 375.22,-295.14 374.49,-290.19 374.49,-290.19 374.49,-290.19 375.22,-295.14 370.04,-290.84 375.94,-300.09 375.94,-300.09"/>
</g>
<!-- Institution -->
<g id="node12" class="node">
<title>Institution</title>
<ellipse fill="none" stroke="black" cx="470.5" cy="-218" rx="59.59" ry="18"/>
<text text-anchor="middle" x="470.5" y="-214.3" font-family="Times,serif" font-size="14.00">Institution</text>
</g>
<!-- Raffle&#45;&gt;Institution -->
<g id="edge2" class="edge">
<title>Raffle&#45;&gt;Institution</title>
<path fill="none" stroke="#3e6b0b" d="M654.62,-368.2C612.18,-355.61 547.6,-331.11 505.5,-290 493.04,-277.83 484.33,-260.31 478.73,-245.71"/>
<polygon fill="#3e6b0b" stroke="#3e6b0b" points="654.77,-368.24 663.14,-375.33 659.58,-369.62 664.38,-371 664.38,-371 664.38,-371 659.58,-369.62 665.62,-366.68 654.77,-368.24 654.77,-368.24"/>
<polygon fill="#3e6b0b" stroke="#3e6b0b" points="478.68,-245.6 479.57,-234.67 477.01,-240.89 475.33,-236.18 475.33,-236.18 475.33,-236.18 477.01,-240.89 471.09,-237.69 478.68,-245.6 478.68,-245.6"/>
</g>
<!-- Condition -->
<g id="node13" class="node">
<title>Condition</title>
<ellipse fill="none" stroke="black" cx="570.5" cy="-272" rx="55.79" ry="18"/>
<text text-anchor="middle" x="570.5" y="-268.3" font-family="Times,serif" font-size="14.00">Condition</text>
</g>
<!-- Raffle&#45;&gt;Condition -->
<g id="edge4" class="edge">
<title>Raffle&#45;&gt;Condition</title>
<path fill="none" stroke="#01c904" d="M671.8,-357.55C650.22,-339.54 619.47,-313.87 597.52,-295.56"/>
<polygon fill="#01c904" stroke="#01c904" points="671.9,-357.63 676.69,-367.49 675.73,-360.83 679.57,-364.04 679.57,-364.04 679.57,-364.04 675.73,-360.83 682.46,-360.58 671.9,-357.63 671.9,-357.63"/>
<polygon fill="#01c904" stroke="#01c904" points="597.26,-295.33 592.46,-285.47 593.42,-292.13 589.58,-288.92 589.58,-288.92 589.58,-288.92 593.42,-292.13 586.7,-292.38 597.26,-295.33 597.26,-295.33"/>
</g>
<!-- Category -->
<g id="node14" class="node">
<title>Category</title>
<ellipse fill="none" stroke="black" cx="697.5" cy="-272" rx="53.09" ry="18"/>
<text text-anchor="middle" x="697.5" y="-268.3" font-family="Times,serif" font-size="14.00">Category</text>
</g>
<!-- Raffle&#45;&gt;Category -->
<g id="edge3" class="edge">
<title>Raffle&#45;&gt;Category</title>
<path fill="none" stroke="#c74333" d="M697.5,-351.93C697.5,-336.19 697.5,-316.39 697.5,-300.57"/>
<polygon fill="#c74333" stroke="#c74333" points="697.5,-351.97 693,-361.97 697.5,-356.97 697.5,-361.97 697.5,-361.97 697.5,-361.97 697.5,-356.97 702,-361.97 697.5,-351.97 697.5,-351.97"/>
<polygon fill="#c74333" stroke="#c74333" points="697.5,-300.34 702,-290.34 697.5,-295.34 697.5,-290.34 697.5,-290.34 697.5,-290.34 697.5,-295.34 693,-290.34 697.5,-300.34 697.5,-300.34"/>
</g>
<!-- RaffleStatus -->
<g id="node15" class="node">
<title>RaffleStatus</title>
<ellipse fill="none" stroke="black" cx="954.5" cy="-272" rx="67.69" ry="18"/>
<text text-anchor="middle" x="954.5" y="-268.3" font-family="Times,serif" font-size="14.00">RaffleStatus</text>
</g>
<!-- Raffle&#45;&gt;RaffleStatus -->
<g id="edge6" class="edge">
<title>Raffle&#45;&gt;RaffleStatus</title>
<path fill="none" stroke="#500d9d" d="M721.24,-357.01C728.35,-351.22 736.41,-345.38 744.5,-341 791.86,-315.34 850.52,-297.36 893.79,-286.36"/>
<polygon fill="#500d9d" stroke="#500d9d" points="721.02,-357.2 710.48,-360.25 717.21,-360.44 713.4,-363.68 713.4,-363.68 713.4,-363.68 717.21,-360.44 716.32,-367.11 721.02,-357.2 721.02,-357.2"/>
<polygon fill="#500d9d" stroke="#500d9d" points="893.9,-286.33 904.7,-288.28 898.76,-285.12 903.61,-283.92 903.61,-283.92 903.61,-283.92 898.76,-285.12 902.52,-279.55 893.9,-286.33 893.9,-286.33"/>
</g>
<!-- ActiveStorage::Attachment -->
<g id="node17" class="node">
<title>ActiveStorage::Attachment</title>
<ellipse fill="none" stroke="black" cx="1175.5" cy="-272" rx="135.68" ry="18"/>
<text text-anchor="middle" x="1175.5" y="-268.3" font-family="Times,serif" font-size="14.00">ActiveStorage::Attachment</text>
</g>
<!-- Raffle&#45;&gt;ActiveStorage::Attachment -->
<g id="edge9" class="edge">
<title>Raffle&#45;&gt;ActiveStorage::Attachment</title>
<path fill="none" stroke="#d3fd70" d="M720.48,-356.45C727.66,-350.56 735.95,-344.8 744.5,-341 773.91,-327.93 954.16,-302.25 1072.06,-286.46"/>
<polygon fill="#d3fd70" stroke="#d3fd70" points="720.15,-356.74 709.66,-359.94 716.38,-360.03 712.62,-363.32 712.62,-363.32 712.62,-363.32 716.38,-360.03 715.58,-366.71 720.15,-356.74 720.15,-356.74"/>
<polygon fill="#d3fd70" stroke="#d3fd70" points="1072.29,-286.43 1082.8,-289.57 1077.25,-285.77 1082.2,-285.11 1082.2,-285.11 1082.2,-285.11 1077.25,-285.77 1081.61,-280.65 1072.29,-286.43 1072.29,-286.43"/>
<text text-anchor="middle" x="988.5" y="-311.8" font-family="Times,serif" font-size="14.00">images_attachments</text>
</g>
<!-- ActiveStorage::Blob -->
<g id="node18" class="node">
<title>ActiveStorage::Blob</title>
<ellipse fill="none" stroke="black" cx="1432.5" cy="-272" rx="102.88" ry="18"/>
<text text-anchor="middle" x="1432.5" y="-268.3" font-family="Times,serif" font-size="14.00">ActiveStorage::Blob</text>
</g>
<!-- Raffle&#45;&gt;ActiveStorage::Blob -->
<g id="edge10" class="edge">
<title>Raffle&#45;&gt;ActiveStorage::Blob</title>
<path fill="none" stroke="#30a543" d="M719.91,-356.18C727.16,-350.17 735.63,-344.42 744.5,-341 811.37,-315.23 995.14,-329.62 1066.5,-323 1179.85,-312.48 1207.77,-305.88 1320.5,-290 1329.51,-288.73 1338.92,-287.37 1348.3,-285.98"/>
<polygon fill="#30a543" stroke="#30a543" points="719.47,-356.58 709.01,-359.88 715.74,-359.9 712.01,-363.23 712.01,-363.23 712.01,-363.23 715.74,-359.9 715,-366.59 719.47,-356.58 719.47,-356.58"/>
<polygon fill="#30a543" stroke="#30a543" points="1348.54,-285.94 1359.09,-288.92 1353.49,-285.21 1358.43,-284.47 1358.43,-284.47 1358.43,-284.47 1353.49,-285.21 1357.77,-280.02 1348.54,-285.94 1348.54,-285.94"/>
<text text-anchor="middle" x="1242" y="-311.8" font-family="Times,serif" font-size="14.00">images_blobs</text>
</g>
<!-- TicketStatus -->
<g id="node5" class="node">
<title>TicketStatus</title>
<ellipse fill="none" stroke="black" cx="346.5" cy="-380" rx="69.59" ry="18"/>
<text text-anchor="middle" x="346.5" y="-376.3" font-family="Times,serif" font-size="14.00">TicketStatus</text>
</g>
<!-- TicketStatus&#45;&gt;Ticket -->
<g id="edge11" class="edge">
<title>TicketStatus&#45;&gt;Ticket</title>
<path fill="none" stroke="#1877bb" d="M350.63,-351.86C352.97,-338.51 356.28,-322.26 360.5,-308 361.34,-305.18 362.31,-302.26 363.35,-299.38"/>
<polygon fill="#1877bb" stroke="#1877bb" points="350.61,-351.99 344.53,-361.12 349.79,-356.93 348.96,-361.86 348.96,-361.86 348.96,-361.86 349.79,-356.93 353.4,-362.6 350.61,-351.99 350.61,-351.99"/>
<polygon fill="#1877bb" stroke="#1877bb" points="363.42,-299.2 371.22,-291.49 365.22,-294.53 367.02,-289.87 367.02,-289.87 367.02,-289.87 365.22,-294.53 362.82,-288.25 363.42,-299.2 363.42,-299.2"/>
</g>
<!-- User -->
<g id="node9" class="node">
<title>User</title>
<ellipse fill="none" stroke="black" cx="395.5" cy="-164" rx="33.29" ry="18"/>
<text text-anchor="middle" x="395.5" y="-160.3" font-family="Times,serif" font-size="14.00">User</text>
</g>
<!-- Ticket&#45;&gt;User -->
<g id="edge12" class="edge">
<title>Ticket&#45;&gt;User</title>
<path fill="none" stroke="#5dc84f" d="M379.82,-244.14C383,-228.11 387.01,-207.83 390.19,-191.81"/>
<polygon fill="#5dc84f" stroke="#5dc84f" points="379.82,-244.16 373.46,-253.09 378.85,-249.06 377.87,-253.97 377.87,-253.97 377.87,-253.97 378.85,-249.06 382.29,-254.84 379.82,-244.16 379.82,-244.16"/>
<polygon fill="#5dc84f" stroke="#5dc84f" points="390.19,-191.8 396.55,-182.86 391.16,-186.89 392.13,-181.99 392.13,-181.99 392.13,-181.99 391.16,-186.89 387.72,-181.11 390.19,-191.8 390.19,-191.8"/>
</g>
<!-- Region -->
<g id="node8" class="node">
<title>Region</title>
<ellipse fill="none" stroke="black" cx="301.5" cy="-164" rx="42.79" ry="18"/>
<text text-anchor="middle" x="301.5" y="-160.3" font-family="Times,serif" font-size="14.00">Region</text>
</g>
<!-- Region&#45;&gt;City -->
<g id="edge14" class="edge">
<title>Region&#45;&gt;City</title>
<path fill="none" stroke="#c0b7d7" d="M324.79,-140.03C333.28,-131.66 342.84,-122.23 351.24,-113.96"/>
<polygon fill="#c0b7d7" stroke="#c0b7d7" points="324.6,-140.22 314.32,-144.04 321.04,-143.73 317.48,-147.24 317.48,-147.24 317.48,-147.24 321.04,-143.73 320.64,-150.45 324.6,-140.22 324.6,-140.22"/>
<polygon fill="#c0b7d7" stroke="#c0b7d7" points="351.43,-113.77 361.71,-109.95 354.99,-110.25 358.55,-106.74 358.55,-106.74 358.55,-106.74 354.99,-110.25 355.39,-103.54 351.43,-113.77 351.43,-113.77"/>
</g>
<!-- Region&#45;&gt;State -->
<g id="edge13" class="edge">
<title>Region&#45;&gt;State</title>
<path fill="none" stroke="#774d4b" d="M304.7,-135.93C307.72,-110.28 312.25,-71.94 315.28,-46.23"/>
<polygon fill="#774d4b" stroke="#774d4b" points="304.69,-135.98 299.05,-145.39 304.1,-140.95 303.52,-145.92 303.52,-145.92 303.52,-145.92 304.1,-140.95 307.99,-146.44 304.69,-135.98 304.69,-135.98"/>
<polygon fill="#774d4b" stroke="#774d4b" points="315.31,-45.99 320.95,-36.59 315.9,-41.03 316.49,-36.06 316.49,-36.06 316.49,-36.06 315.9,-41.03 312.02,-35.53 315.31,-45.99 315.31,-45.99"/>
</g>
<!-- User&#45;&gt;City -->
<g id="edge15" class="edge">
<title>User&#45;&gt;City</title>
<path fill="none" stroke="#e3c2b4" d="M387.26,-136.39C385.49,-130.7 383.63,-124.69 381.86,-118.99"/>
<polygon fill="#e3c2b4" stroke="#e3c2b4" points="387.33,-136.62 385.99,-147.51 388.81,-141.4 390.29,-146.17 390.29,-146.17 390.29,-146.17 388.81,-141.4 394.58,-144.84 387.33,-136.62 387.33,-136.62"/>
<polygon fill="#e3c2b4" stroke="#e3c2b4" points="381.79,-118.75 383.13,-107.87 380.31,-113.97 378.83,-109.2 378.83,-109.2 378.83,-109.2 380.31,-113.97 374.53,-110.53 381.79,-118.75 381.79,-118.75"/>
</g>
<!-- ZipcodeRange -->
<g id="node10" class="node">
<title>ZipcodeRange</title>
<ellipse fill="none" stroke="black" cx="928.5" cy="-380" rx="76.89" ry="18"/>
<text text-anchor="middle" x="928.5" y="-376.3" font-family="Times,serif" font-size="14.00">ZipcodeRange</text>
</g>
<!-- Institution&#45;&gt;City -->
<g id="edge16" class="edge">
<title>Institution&#45;&gt;City</title>
<path fill="none" stroke="#b2df4c" d="M461.27,-190.22C455.68,-176.23 447.66,-159.3 437.5,-146 427.32,-132.67 413.31,-120.39 401,-110.92"/>
<polygon fill="#b2df4c" stroke="#b2df4c" points="461.36,-190.44 460.7,-201.39 463.13,-195.12 464.9,-199.79 464.9,-199.79 464.9,-199.79 463.13,-195.12 469.11,-198.2 461.36,-190.44 461.36,-190.44"/>
<polygon fill="#b2df4c" stroke="#b2df4c" points="400.84,-110.8 395.5,-101.22 396.83,-107.81 392.81,-104.83 392.81,-104.83 392.81,-104.83 396.83,-107.81 390.13,-108.44 400.84,-110.8 400.84,-110.8"/>
</g>
<!-- Category&#45;&gt;Category -->
<g id="edge17" class="edge">
<title>Category&#45;&gt;Category</title>
<path fill="none" stroke="#2d61d6" d="M755.94,-278.95C763.67,-277.77 768.8,-275.45 768.8,-272 768.8,-268.55 763.67,-266.23 755.94,-265.05"/>
<polygon fill="#2d61d6" stroke="#2d61d6" points="755.78,-278.96 745.43,-275.33 750.8,-279.39 745.82,-279.82 745.82,-279.82 745.82,-279.82 750.8,-279.39 746.2,-284.3 755.78,-278.96 755.78,-278.96"/>
<polygon fill="#2d61d6" stroke="#2d61d6" points="755.78,-265.04 746.2,-259.7 750.8,-264.61 745.82,-264.18 745.82,-264.18 745.82,-264.18 750.8,-264.61 745.43,-268.67 755.78,-265.04 755.78,-265.04"/>
<text text-anchor="middle" x="818.8" y="-268.3" font-family="Times,serif" font-size="14.00">subcategories</text>
</g>
<!-- ApplicationRecord -->
<g id="node16" class="node">
<title>ApplicationRecord</title>
<ellipse fill="none" stroke="black" cx="1118.5" cy="-380" rx="95.58" ry="18"/>
<text text-anchor="middle" x="1118.5" y="-376.3" font-family="Times,serif" font-size="14.00">ApplicationRecord</text>
</g>
</g>
</svg>
